<?xml version="1.0" encoding="UTF-8"?>
<!DOCTYPE svg PUBLIC "-//W3C//DTD SVG 1.1//EN" "http://www.w3.org/Graphics/SVG/1.1/DTD/svg11.dtd">
<svg xmlns="http://www.w3.org/2000/svg" version="1.1" width="729px" height="342px" style="shape-rendering:geometricPrecision; text-rendering:geometricPrecision; image-rendering:optimizeQuality; fill-rule:evenodd; clip-rule:evenodd" xmlns:xlink="http://www.w3.org/1999/xlink">
<g><path style="opacity:1" fill="#7cb4c9" d="M 632.5,21.5 C 631.603,20.4019 630.77,20.4019 630,21.5C 629.798,19.7444 629.298,18.0777 628.5,16.5C 626.283,14.4336 624.283,12.1002 622.5,9.5C 621.833,9.16667 621.167,8.83333 620.5,8.5C 619.859,9.99346 618.859,10.9935 617.5,11.5C 618.343,8.48376 619.843,5.81709 622,3.5C 626.28,9.06296 629.78,15.063 632.5,21.5 Z"/></g>
<g><path style="opacity:1" fill="#4b9fc0" d="M 632.5,21.5 C 636.03,24.2089 636.863,27.5422 635,31.5C 624.861,41.81 613.028,49.4767 599.5,54.5C 597.833,54.5 596.167,54.5 594.5,54.5C 594.5,53.5 594.5,52.5 594.5,51.5C 601.665,37.8324 609.331,24.499 617.5,11.5C 618.859,10.9935 619.859,9.99346 620.5,8.5C 621.167,8.83333 621.833,9.16667 622.5,9.5C 624.283,12.1002 626.283,14.4336 628.5,16.5C 629.298,18.0777 629.798,19.7444 630,21.5C 630.77,20.4019 631.603,20.4019 632.5,21.5 Z"/></g>
<g><path style="opacity:1" fill="#41abd9" d="M 673.5,96.5 C 673.5,99.1667 673.5,101.833 673.5,104.5C 670.245,104.014 667.578,105.014 665.5,107.5C 663.172,105.2 661.005,105.2 659,107.5C 657.951,106.483 656.784,106.316 655.5,107C 657.747,108.995 658.747,111.495 658.5,114.5C 657.5,114.5 656.5,114.5 655.5,114.5C 655.5,115.5 655.5,116.5 655.5,117.5C 654.167,117.5 652.833,117.5 651.5,117.5C 651.5,118.5 651.5,119.5 651.5,120.5C 641.083,127.034 629.749,131.368 617.5,133.5C 604.501,134.803 591.501,134.803 578.5,133.5C 572.686,132.585 567.353,130.585 562.5,127.5C 563.811,124.128 563.811,120.461 562.5,116.5C 563.5,116.5 564.5,116.5 565.5,116.5C 566.945,119.256 567.611,121.923 567.5,124.5C 568.212,120.246 569.545,116.246 571.5,112.5C 567.327,109.855 567.66,108.188 572.5,107.5C 572.346,98.0682 575.513,90.0682 582,83.5C 582.498,80.5184 582.665,77.5184 582.5,74.5C 585.887,73.9819 589.221,73.1486 592.5,72C 593.056,71.6174 593.389,71.1174 593.5,70.5C 601.613,66.9437 609.28,62.6104 616.5,57.5C 624.79,52.2103 631.79,45.5437 637.5,37.5C 638.322,35.2721 639.655,34.6054 641.5,35.5C 650.667,51.8333 659.833,68.1667 669,84.5C 670.791,88.4115 672.291,92.4115 673.5,96.5 Z"/></g>
<g><path style="opacity:0.584" fill="#a7dbec" d="M 637.5,37.5 C 631.79,45.5437 624.79,52.2103 616.5,57.5C 623.474,50.8611 630.474,44.1944 637.5,37.5 Z"/></g>
<g><path style="opacity:0.216" fill="#bddde4" d="M 594.5,51.5 C 594.5,52.5 594.5,53.5 594.5,54.5C 596.167,54.5 597.833,54.5 599.5,54.5C 597.485,55.9238 595.152,56.5905 592.5,56.5C 592.12,54.302 592.787,52.6354 594.5,51.5 Z"/></g>
<g><path style="opacity:0.22" fill="#bfc7cb" d="M 369.5,85.5 C 386.534,82.8789 403.201,84.7122 419.5,91C 422.898,92.3571 425.898,94.1904 428.5,96.5C 409.957,87.1814 390.29,83.5148 369.5,85.5 Z"/></g>
<g><path style="opacity:0.345" fill="#afb8bb" d="M 40.5,93.5 C 33.658,89.4798 26.3247,88.4798 18.5,90.5C 18.9175,89.7784 19.5842,89.2784 20.5,89C 26.7243,87.9393 32.7243,88.6059 38.5,91C 39.3805,91.7083 40.0472,92.5416 40.5,93.5 Z"/></g>
<g><path style="opacity:0.361" fill="#b1bbbd" d="M 155.5,92.5 C 148.763,89.3931 141.763,88.7264 134.5,90.5C 134.918,89.7784 135.584,89.2784 136.5,89C 141.167,88.3333 145.833,88.3333 150.5,89C 152.584,89.6972 154.251,90.8639 155.5,92.5 Z"/></g>
<g><path style="opacity:0.624" fill="#b4bec1" d="M 369.5,85.5 C 364.424,87.4053 359.091,88.7386 353.5,89.5C 358.422,86.9361 363.755,85.6028 369.5,85.5 Z"/></g>
<g><path style="opacity:1" fill="#22363d" d="M 369.5,85.5 C 390.29,83.5148 409.957,87.1814 428.5,96.5C 429.634,99.0338 431.634,100.367 434.5,100.5C 439.774,104.105 444.441,108.438 448.5,113.5C 449.08,115.749 450.413,117.415 452.5,118.5C 452.738,120.404 453.738,121.738 455.5,122.5C 455.427,124.027 456.094,125.027 457.5,125.5C 458.674,126.514 459.34,127.847 459.5,129.5C 459.427,131.027 460.094,132.027 461.5,132.5C 462.537,133.93 463.204,135.597 463.5,137.5C 464.926,143.778 466.926,149.778 469.5,155.5C 471.152,169.105 471.819,182.771 471.5,196.5C 470.37,211.685 467.037,226.352 461.5,240.5C 460.5,240.5 459.5,240.5 458.5,240.5C 458.5,242.167 458.5,243.833 458.5,245.5C 457.617,248.704 455.95,251.371 453.5,253.5C 452.094,253.973 451.427,254.973 451.5,256.5C 451.167,257.5 450.5,258.167 449.5,258.5C 448.094,258.973 447.427,259.973 447.5,261.5C 446.167,263.5 444.5,265.167 442.5,266.5C 440.071,266.884 437.737,267.551 435.5,268.5C 435.5,269.5 435.5,270.5 435.5,271.5C 431.808,271.324 429.808,272.991 429.5,276.5C 427.819,278.008 425.819,279.008 423.5,279.5C 419.111,280.403 415.111,282.069 411.5,284.5C 402.261,286.248 392.927,287.248 383.5,287.5C 375.458,287.224 367.458,286.557 359.5,285.5C 355.183,283.06 350.517,281.393 345.5,280.5C 343.847,280.34 342.514,279.674 341.5,278.5C 341.027,277.094 340.027,276.427 338.5,276.5C 338.027,275.094 337.027,274.427 335.5,274.5C 335.027,273.094 334.027,272.427 332.5,272.5C 331.738,270.738 330.404,269.738 328.5,269.5C 327.5,269.167 326.833,268.5 326.5,267.5C 325.167,265.5 323.5,263.833 321.5,262.5C 320.962,260.883 320.629,259.216 320.5,257.5C 318.012,257.317 316.012,256.317 314.5,254.5C 314.446,252.368 313.446,251.035 311.5,250.5C 311.129,246.665 309.462,243.665 306.5,241.5C 305.662,241.158 305.328,240.492 305.5,239.5C 297.263,217.259 293.93,194.259 295.5,170.5C 295.5,170.167 295.5,169.833 295.5,169.5C 296.903,166.091 297.57,162.425 297.5,158.5C 297.5,158.167 297.5,157.833 297.5,157.5C 299.163,155.562 299.829,153.228 299.5,150.5C 301.411,146.767 302.744,142.767 303.5,138.5C 306.201,135.765 307.868,132.431 308.5,128.5C 308.328,127.508 308.662,126.842 309.5,126.5C 310.906,126.027 311.573,125.027 311.5,123.5C 312.906,123.027 313.573,122.027 313.5,120.5C 315.262,119.738 316.262,118.404 316.5,116.5C 318.914,115.089 320.581,113.089 321.5,110.5C 327.358,103.639 334.358,98.3058 342.5,94.5C 346.593,93.6176 350.26,91.951 353.5,89.5C 359.091,88.7386 364.424,87.4053 369.5,85.5 Z M 391.5,128.5 C 395.558,129.63 399.558,130.964 403.5,132.5C 404.262,134.262 405.596,135.262 407.5,135.5C 409.167,137.833 411.167,139.833 413.5,141.5C 417.38,147.927 420.713,154.593 423.5,161.5C 427.71,179.588 427.377,197.588 422.5,215.5C 421.069,216.78 420.402,218.447 420.5,220.5C 419.662,220.842 419.328,221.508 419.5,222.5C 417.75,223.659 416.75,225.326 416.5,227.5C 415.094,227.973 414.427,228.973 414.5,230.5C 410.435,234.572 406.102,238.238 401.5,241.5C 388.209,246.039 375.209,245.373 362.5,239.5C 361.738,237.738 360.404,236.738 358.5,236.5C 357.5,234.833 356.167,233.5 354.5,232.5C 354.262,230.596 353.262,229.262 351.5,228.5C 351.573,226.973 350.906,225.973 349.5,225.5C 349.672,224.508 349.338,223.842 348.5,223.5C 348.34,221.847 347.674,220.514 346.5,219.5C 346.672,218.508 346.338,217.842 345.5,217.5C 344.87,213.952 343.87,210.619 342.5,207.5C 342.5,207.167 342.5,206.833 342.5,206.5C 342.153,201.32 341.487,196.32 340.5,191.5C 340.9,185.171 341.233,178.838 341.5,172.5C 342.627,168.317 343.627,163.983 344.5,159.5C 345.871,157.064 346.871,154.397 347.5,151.5C 348.338,151.158 348.672,150.492 348.5,149.5C 349.906,149.027 350.573,148.027 350.5,146.5C 351.906,146.027 352.573,145.027 352.5,143.5C 353.906,143.027 354.573,142.027 354.5,140.5C 356.167,139.5 357.5,138.167 358.5,136.5C 360.404,136.262 361.738,135.262 362.5,133.5C 363.492,133.672 364.158,133.338 364.5,132.5C 373.095,128.91 382.095,127.577 391.5,128.5 Z"/></g>
<g><path style="opacity:1" fill="#24373e" d="M 40.5,93.5 C 40.427,95.0269 41.0937,96.0269 42.5,96.5C 44.4095,97.9746 45.5762,99.9746 46,102.5C 47.1076,106.086 47.6076,109.753 47.5,113.5C 47.5,131.167 47.5,148.833 47.5,166.5C 72.5,166.5 97.5,166.5 122.5,166.5C 123.496,150.342 123.83,134.009 123.5,117.5C 123.5,113.833 123.5,110.167 123.5,106.5C 124.963,102.792 126.63,99.1255 128.5,95.5C 129.833,94.8333 130.833,93.8333 131.5,92.5C 133.027,92.573 134.027,91.9063 134.5,90.5C 141.763,88.7264 148.763,89.3931 155.5,92.5C 156.5,92.8333 157.167,93.5 157.5,94.5C 157.427,96.0269 158.094,97.0269 159.5,97.5C 162.213,101.657 163.713,106.323 164,111.5C 164.667,162.5 164.667,213.5 164,264.5C 163.674,273.182 159.841,279.516 152.5,283.5C 149.517,283.898 146.517,284.232 143.5,284.5C 139.76,284.124 136.094,283.457 132.5,282.5C 132.027,281.094 131.027,280.427 129.5,280.5C 126.319,275.291 124.319,269.625 123.5,263.5C 123.83,244.326 123.497,225.326 122.5,206.5C 97.5,206.5 72.5,206.5 47.5,206.5C 47.5,225.167 47.5,243.833 47.5,262.5C 47.4986,270.678 44.4986,277.511 38.5,283C 36.9751,284.009 35.3084,284.509 33.5,284.5C 28.1301,284.608 22.7968,284.275 17.5,283.5C 16.4154,281.413 14.7488,280.08 12.5,279.5C 12.573,277.973 11.9063,276.973 10.5,276.5C 9.02446,271.931 7.8578,267.265 7,262.5C 6.50001,211.834 6.33334,161.168 6.5,110.5C 6.5,110.167 6.5,109.833 6.5,109.5C 8.24811,102.675 11.5814,96.675 16.5,91.5C 16.8417,90.6618 17.5084,90.3284 18.5,90.5C 26.3247,88.4798 33.658,89.4798 40.5,93.5 Z"/></g>
<g><path style="opacity:0.702" fill="#979fa4" d="M 134.5,90.5 C 134.027,91.9063 133.027,92.573 131.5,92.5C 131.973,91.0937 132.973,90.427 134.5,90.5 Z"/></g>
<g><path style="opacity:0.737" fill="#9aa4a8" d="M 353.5,89.5 C 350.26,91.951 346.593,93.6176 342.5,94.5C 345.645,91.8872 349.311,90.2205 353.5,89.5 Z"/></g>
<g><path style="opacity:0.706" fill="#9aa3a8" d="M 40.5,93.5 C 41.9063,93.9731 42.573,94.9731 42.5,96.5C 41.0937,96.0269 40.427,95.0269 40.5,93.5 Z"/></g>
<g><path style="opacity:0.337" fill="#c3c9cb" d="M 131.5,92.5 C 130.833,93.8333 129.833,94.8333 128.5,95.5C 128.5,93.5 129.5,92.5 131.5,92.5 Z"/></g>
<g><path style="opacity:0.537" fill="#8e9da2" d="M 157.5,94.5 C 158.906,94.9731 159.573,95.9731 159.5,97.5C 158.094,97.0269 157.427,96.0269 157.5,94.5 Z"/></g>
<g><path style="opacity:0.875" fill="#7d878b" d="M 428.5,96.5 C 430.853,97.3403 432.853,98.6736 434.5,100.5C 431.634,100.367 429.634,99.0338 428.5,96.5 Z"/></g>
<g><path style="opacity:0.022" fill="#d9dfe2" d="M 128.5,95.5 C 126.63,99.1255 124.963,102.792 123.5,106.5C 123.45,101.955 125.117,98.2887 128.5,95.5 Z"/></g>
<g><path style="opacity:0.075" fill="#cbd5d6" d="M 16.5,91.5 C 11.5814,96.675 8.24811,102.675 6.5,109.5C 6.7641,104.446 8.2641,99.7795 11,95.5C 12.451,93.5359 14.2843,92.2026 16.5,91.5 Z"/></g>
<g><path style="opacity:1" fill="#61b4d8" d="M 673.5,96.5 C 675.684,99.1895 676.351,102.19 675.5,105.5C 668.117,111.523 660.117,116.523 651.5,120.5C 651.5,119.5 651.5,118.5 651.5,117.5C 652.833,117.5 654.167,117.5 655.5,117.5C 655.5,116.5 655.5,115.5 655.5,114.5C 656.5,114.5 657.5,114.5 658.5,114.5C 658.747,111.495 657.747,108.995 655.5,107C 656.784,106.316 657.951,106.483 659,107.5C 661.005,105.2 663.172,105.2 665.5,107.5C 667.578,105.014 670.245,104.014 673.5,104.5C 673.5,101.833 673.5,99.1667 673.5,96.5 Z"/></g>
<g><path style="opacity:1" fill="#58b3d7" d="M 593.5,70.5 C 593.389,71.1174 593.056,71.6174 592.5,72C 589.221,73.1486 585.887,73.9819 582.5,74.5C 582.665,77.5184 582.498,80.5184 582,83.5C 575.513,90.0682 572.346,98.0682 572.5,107.5C 567.66,108.188 567.327,109.855 571.5,112.5C 569.545,116.246 568.212,120.246 567.5,124.5C 567.611,121.923 566.945,119.256 565.5,116.5C 564.5,116.5 563.5,116.5 562.5,116.5C 563.811,120.461 563.811,124.128 562.5,127.5C 559.044,127.247 557.211,125.58 557,122.5C 565.589,106.323 573.922,89.9895 582,73.5C 585.591,71.6802 589.424,70.6802 593.5,70.5 Z"/></g>
<g><path style="opacity:0.322" fill="#b5cbd3" d="M 680.5,112.5 C 681.947,111.115 682.947,111.448 683.5,113.5C 682.609,112.89 681.609,112.557 680.5,112.5 Z"/></g>
<g><path style="opacity:0.675" fill="#a5aeb1" d="M 321.5,110.5 C 320.581,113.089 318.914,115.089 316.5,116.5C 317.419,113.911 319.086,111.911 321.5,110.5 Z"/></g>
<g><path style="opacity:0.522" fill="#c0c6c9" d="M 123.5,106.5 C 123.5,110.167 123.5,113.833 123.5,117.5C 123.167,117.5 122.833,117.5 122.5,117.5C 121.802,113.725 122.135,110.058 123.5,106.5 Z"/></g>
<g><path style="opacity:0.871" fill="#9da4a8" d="M 448.5,113.5 C 450.587,114.585 451.92,116.251 452.5,118.5C 450.413,117.415 449.08,115.749 448.5,113.5 Z"/></g>
<g><path style="opacity:0.086" fill="#e5eff0" d="M 6.5,110.5 C 6.33334,161.168 6.50001,211.834 7,262.5C 7.8578,267.265 9.02446,271.931 10.5,276.5C 7.95053,273.034 6.45053,269.034 6,264.5C 5.16829,212.998 5.33496,161.665 6.5,110.5 Z"/></g>
<g><path style="opacity:0.616" fill="#9da8aa" d="M 316.5,116.5 C 316.262,118.404 315.262,119.738 313.5,120.5C 313.738,118.596 314.738,117.262 316.5,116.5 Z"/></g>
<g><path style="opacity:0.525" fill="#a9b0b1" d="M 452.5,118.5 C 454.262,119.262 455.262,120.596 455.5,122.5C 453.738,121.738 452.738,120.404 452.5,118.5 Z"/></g>
<g><path style="opacity:0.682" fill="#a4bacc" d="M 673.5,118.5 C 672.5,120.167 671.167,121.5 669.5,122.5C 669.167,122.5 668.833,122.5 668.5,122.5C 669.585,120.413 671.251,119.08 673.5,118.5 Z"/></g>
<g><path style="opacity:0.459" fill="#a9b1b2" d="M 313.5,120.5 C 313.573,122.027 312.906,123.027 311.5,123.5C 311.427,121.973 312.094,120.973 313.5,120.5 Z"/></g>
<g><path style="opacity:0.478" fill="#aac9d4" d="M 668.5,122.5 C 667.738,124.262 666.404,125.262 664.5,125.5C 665.262,123.738 666.596,122.738 668.5,122.5 Z"/></g>
<g><path style="opacity:0.247" fill="#c6cfd2" d="M 455.5,122.5 C 456.906,122.973 457.573,123.973 457.5,125.5C 456.094,125.027 455.427,124.027 455.5,122.5 Z"/></g>
<g><path style="opacity:0.357" fill="#aebfc3" d="M 311.5,123.5 C 311.573,125.027 310.906,126.027 309.5,126.5C 309.427,124.973 310.094,123.973 311.5,123.5 Z"/></g>
<g><path style="opacity:1" fill="#255e74" d="M 676.5,115.5 C 680.49,114.616 683.323,115.949 685,119.5C 686.923,124.368 688.423,129.368 689.5,134.5C 687.738,137.076 687.071,139.743 687.5,142.5C 687.833,142.833 688.167,143.167 688.5,143.5C 689.308,141.577 689.808,139.577 690,137.5C 691.299,137.966 692.799,137.966 694.5,137.5C 694.656,140.066 694.322,142.566 693.5,145C 695.74,146.942 697.073,149.442 697.5,152.5C 699.723,151.962 701.723,152.629 703.5,154.5C 703.502,158.165 704.835,161.165 707.5,163.5C 707.357,165.262 707.691,166.929 708.5,168.5C 707.476,169.852 706.476,171.185 705.5,172.5C 705.5,173.167 705.167,173.5 704.5,173.5C 702.326,173.75 700.659,174.75 699.5,176.5C 694.311,178.597 689.311,180.93 684.5,183.5C 673.004,186.229 661.337,187.562 649.5,187.5C 648.833,187.5 648.167,187.5 647.5,187.5C 641.75,185.771 635.75,184.771 629.5,184.5C 627.629,183.203 625.629,182.203 623.5,181.5C 627.932,181.447 632.266,182.114 636.5,183.5C 642.049,182.404 647.549,181.071 653,179.5C 654.895,179.615 656.562,180.282 658,181.5C 662.07,180.978 666.403,180.311 671,179.5C 671.167,179.167 671.333,178.833 671.5,178.5C 666.952,177.808 662.452,177.141 658,176.5C 656.601,176.501 655.101,176.835 653.5,177.5C 652.5,177 651.5,176.5 650.5,176C 655.229,175.367 659.396,174.867 663,174.5C 663.333,164.5 663.667,154.5 664,144.5C 664.692,143.975 665.192,143.308 665.5,142.5C 663.709,141.236 661.709,140.569 659.5,140.5C 657.182,140.997 654.848,141.33 652.5,141.5C 652.192,139.076 652.526,136.743 653.5,134.5C 655.655,133.095 657.821,131.762 660,130.5C 660.718,131.451 661.551,131.617 662.5,131C 663.833,130.333 663.833,129.667 662.5,129C 665.745,127.607 668.745,125.94 671.5,124C 670.584,123.722 669.918,123.222 669.5,122.5C 671.167,121.5 672.5,120.167 673.5,118.5C 674.167,117.167 675.167,116.167 676.5,115.5 Z"/></g>
<g><path style="opacity:0.471" fill="#abb6b7" d="M 391.5,128.5 C 382.095,127.577 373.095,128.91 364.5,132.5C 366.649,130.254 369.316,128.754 372.5,128C 379.014,127.18 385.347,127.347 391.5,128.5 Z"/></g>
<g><path style="opacity:0.251" fill="#c3cbcd" d="M 459.5,129.5 C 460.906,129.973 461.573,130.973 461.5,132.5C 460.094,132.027 459.427,131.027 459.5,129.5 Z"/></g>
<g><path style="opacity:0.506" fill="#a3abb0" d="M 403.5,132.5 C 405.404,132.738 406.738,133.738 407.5,135.5C 405.596,135.262 404.262,134.262 403.5,132.5 Z"/></g>
<g><path style="opacity:0.82" fill="#99a1a4" d="M 308.5,128.5 C 307.868,132.431 306.201,135.765 303.5,138.5C 304.132,134.569 305.799,131.235 308.5,128.5 Z"/></g>
<g><path style="opacity:0.078" fill="#c6ced1" d="M 362.5,133.5 C 361.738,135.262 360.404,136.262 358.5,136.5C 359.262,134.738 360.596,133.738 362.5,133.5 Z"/></g>
<g><path style="opacity:0.718" fill="#98a2a7" d="M 407.5,135.5 C 410.5,136.5 412.5,138.5 413.5,141.5C 411.167,139.833 409.167,137.833 407.5,135.5 Z"/></g>
<g><path style="opacity:0.776" fill="#8b9295" d="M 122.5,117.5 C 122.833,117.5 123.167,117.5 123.5,117.5C 123.83,134.009 123.496,150.342 122.5,166.5C 122.5,166.167 122.5,165.833 122.5,165.5C 121.177,149.402 121.177,133.402 122.5,117.5 Z"/></g>
<g><path style="opacity:0.835" fill="#9da7a9" d="M 463.5,137.5 C 466.473,143.085 468.473,149.085 469.5,155.5C 466.926,149.778 464.926,143.778 463.5,137.5 Z"/></g>
<g><path style="opacity:0.031" fill="#c7d8d9" d="M 354.5,140.5 C 354.573,142.027 353.906,143.027 352.5,143.5C 352.427,141.973 353.094,140.973 354.5,140.5 Z"/></g>
<g><path style="opacity:1" fill="#2d6a81" d="M 668.5,122.5 C 668.833,122.5 669.167,122.5 669.5,122.5C 669.918,123.222 670.584,123.722 671.5,124C 668.745,125.94 665.745,127.607 662.5,129C 663.833,129.667 663.833,130.333 662.5,131C 661.551,131.617 660.718,131.451 660,130.5C 657.821,131.762 655.655,133.095 653.5,134.5C 652.526,136.743 652.192,139.076 652.5,141.5C 650.866,140.793 649.532,139.627 648.5,138C 646.365,137.365 644.365,137.699 642.5,139C 644.416,140.817 646.749,141.984 649.5,142.5C 646.679,143.971 644.179,143.637 642,141.5C 641.333,152.5 641.333,163.5 642,174.5C 643.624,174.57 645.457,175.07 647.5,176C 645.063,177.375 642.397,177.875 639.5,177.5C 639.832,166.147 639.499,154.814 638.5,143.5C 636.52,142.617 634.52,142.783 632.5,144C 631.663,145.011 631.33,146.178 631.5,147.5C 629.856,147.714 628.356,147.38 627,146.5C 626.692,147.308 626.192,147.975 625.5,148.5C 611.285,147.185 597.285,148.518 583.5,152.5C 584.852,153.896 586.519,154.563 588.5,154.5C 591.799,153.79 595.133,153.457 598.5,153.5C 598.34,155.199 598.506,156.866 599,158.5C 600.868,157.335 602.702,157.668 604.5,159.5C 602.696,160.768 600.696,161.435 598.5,161.5C 598.351,162.552 598.517,163.552 599,164.5C 601.687,163.287 604.52,162.62 607.5,162.5C 607.95,166.224 606.283,168.391 602.5,169C 604.235,169.651 605.902,169.485 607.5,168.5C 607.997,172.262 609.331,175.595 611.5,178.5C 610.833,178.5 610.167,178.5 609.5,178.5C 608.22,177.069 606.553,176.402 604.5,176.5C 603.209,176.737 602.209,176.404 601.5,175.5C 600.942,174.21 599.942,173.377 598.5,173C 600.301,172.683 600.634,172.016 599.5,171C 593.563,170.882 587.897,169.716 582.5,167.5C 573.521,164.013 564.521,160.513 555.5,157C 551.218,155.843 546.884,155.01 542.5,154.5C 543.656,146.868 546.656,140.035 551.5,134C 554.916,133.873 557.916,135.04 560.5,137.5C 561.291,139.056 561.624,140.39 561.5,141.5C 562.833,141.5 564.167,141.5 565.5,141.5C 568.468,142.56 570.968,144.227 573,146.5C 574.699,145.594 576.533,145.261 578.5,145.5C 578.833,145.5 579.167,145.5 579.5,145.5C 583.029,147.423 587.029,148.089 591.5,147.5C 602.265,147.488 612.932,146.488 623.5,144.5C 629.7,143.658 635.367,141.658 640.5,138.5C 648.78,134.693 656.78,130.36 664.5,125.5C 666.404,125.262 667.738,124.262 668.5,122.5 Z"/></g>
<g><path style="opacity:0.592" fill="#a7ddf3" d="M 578.5,133.5 C 591.501,134.803 604.501,134.803 617.5,133.5C 604.496,137.453 591.496,137.453 578.5,133.5 Z"/></g>
<g><path style="opacity:0.678" fill="#759dac" d="M 560.5,137.5 C 566.328,140.752 572.328,143.418 578.5,145.5C 576.533,145.261 574.699,145.594 573,146.5C 570.968,144.227 568.468,142.56 565.5,141.5C 564.167,141.5 562.833,141.5 561.5,141.5C 561.624,140.39 561.291,139.056 560.5,137.5 Z"/></g>
<g><path style="opacity:0.796" fill="#83a4b1" d="M 640.5,138.5 C 635.367,141.658 629.7,143.658 623.5,144.5C 628.941,142.129 634.608,140.129 640.5,138.5 Z"/></g>
<g><path style="opacity:0.608" fill="#a9b0b3" d="M 303.5,138.5 C 302.744,142.767 301.411,146.767 299.5,150.5C 299.861,146.085 301.194,142.085 303.5,138.5 Z"/></g>
<g><path style="opacity:1" fill="#23617a" d="M 652.5,141.5 C 654.848,141.33 657.182,140.997 659.5,140.5C 661.709,140.569 663.709,141.236 665.5,142.5C 665.192,143.308 664.692,143.975 664,144.5C 663.667,154.5 663.333,164.5 663,174.5C 659.396,174.867 655.229,175.367 650.5,176C 651.5,176.5 652.5,177 653.5,177.5C 655.101,176.835 656.601,176.501 658,176.5C 662.452,177.141 666.952,177.808 671.5,178.5C 671.333,178.833 671.167,179.167 671,179.5C 666.403,180.311 662.07,180.978 658,181.5C 656.562,180.282 654.895,179.615 653,179.5C 647.549,181.071 642.049,182.404 636.5,183.5C 632.266,182.114 627.932,181.447 623.5,181.5C 620.873,180.908 618.206,180.575 615.5,180.5C 614.713,178.896 613.38,178.229 611.5,178.5C 609.331,175.595 607.997,172.262 607.5,168.5C 605.902,169.485 604.235,169.651 602.5,169C 606.283,168.391 607.95,166.224 607.5,162.5C 604.52,162.62 601.687,163.287 599,164.5C 598.517,163.552 598.351,162.552 598.5,161.5C 600.696,161.435 602.696,160.768 604.5,159.5C 602.702,157.668 600.868,157.335 599,158.5C 598.506,156.866 598.34,155.199 598.5,153.5C 595.133,153.457 591.799,153.79 588.5,154.5C 586.519,154.563 584.852,153.896 583.5,152.5C 597.285,148.518 611.285,147.185 625.5,148.5C 626.192,147.975 626.692,147.308 627,146.5C 628.356,147.38 629.856,147.714 631.5,147.5C 631.33,146.178 631.663,145.011 632.5,144C 634.52,142.783 636.52,142.617 638.5,143.5C 639.499,154.814 639.832,166.147 639.5,177.5C 642.397,177.875 645.063,177.375 647.5,176C 645.457,175.07 643.624,174.57 642,174.5C 641.333,163.5 641.333,152.5 642,141.5C 644.179,143.637 646.679,143.971 649.5,142.5C 646.749,141.984 644.416,140.817 642.5,139C 644.365,137.699 646.365,137.365 648.5,138C 649.532,139.627 650.866,140.793 652.5,141.5 Z"/></g>
<g><path style="opacity:0.196" fill="#bfc7cb" d="M 413.5,141.5 C 418.936,147.038 422.269,153.705 423.5,161.5C 420.713,154.593 417.38,147.927 413.5,141.5 Z"/></g>
<g><path style="opacity:1" fill="#3f6e7d" d="M 680.5,112.5 C 681.609,112.557 682.609,112.89 683.5,113.5C 690.947,126.729 697.614,140.396 703.5,154.5C 701.723,152.629 699.723,151.962 697.5,152.5C 697.073,149.442 695.74,146.942 693.5,145C 694.322,142.566 694.656,140.066 694.5,137.5C 692.799,137.966 691.299,137.966 690,137.5C 689.808,139.577 689.308,141.577 688.5,143.5C 688.167,143.167 687.833,142.833 687.5,142.5C 687.071,139.743 687.738,137.076 689.5,134.5C 688.423,129.368 686.923,124.368 685,119.5C 683.323,115.949 680.49,114.616 676.5,115.5C 677.262,113.738 678.596,112.738 680.5,112.5 Z"/></g>
<g><path style="opacity:0.078" fill="#dae2e3" d="M 352.5,143.5 C 352.573,145.027 351.906,146.027 350.5,146.5C 350.427,144.973 351.094,143.973 352.5,143.5 Z"/></g>
<g><path style="opacity:0.965" fill="#83a4b4" d="M 579.5,145.5 C 583.684,145.851 587.684,146.518 591.5,147.5C 587.029,148.089 583.029,147.423 579.5,145.5 Z"/></g>
<g><path style="opacity:0.161" fill="#cbd4d6" d="M 350.5,146.5 C 350.573,148.027 349.906,149.027 348.5,149.5C 348.427,147.973 349.094,146.973 350.5,146.5 Z"/></g>
<g><path style="opacity:0.31" fill="#b6bcc2" d="M 299.5,150.5 C 299.829,153.228 299.163,155.562 297.5,157.5C 297.41,154.848 298.076,152.515 299.5,150.5 Z"/></g>
<g><path style="opacity:0.369" fill="#b3bbbf" d="M 347.5,151.5 C 346.871,154.397 345.871,157.064 344.5,159.5C 344.345,156.284 345.345,153.617 347.5,151.5 Z"/></g>
<g><path style="opacity:0.835" fill="#a1b7bf" d="M 703.5,154.5 C 705.592,157.088 706.925,160.088 707.5,163.5C 704.835,161.165 703.502,158.165 703.5,154.5 Z"/></g>
<g><path style="opacity:0.643" fill="#a7b2b6" d="M 344.5,159.5 C 343.627,163.983 342.627,168.317 341.5,172.5C 341.336,169.813 341.503,167.146 342,164.5C 342.099,162.347 342.933,160.681 344.5,159.5 Z"/></g>
<g><path style="opacity:0.463" fill="#bae2f0" d="M 573.5,174.5 C 564.294,171.406 554.961,168.572 545.5,166C 542.854,165.503 540.187,165.336 537.5,165.5C 538.261,164.609 539.261,163.942 540.5,163.5C 552.066,165.8 563.066,169.467 573.5,174.5 Z"/></g>
<g><path style="opacity:0.345" fill="#acb4b6" d="M 47.5,113.5 C 48.4967,130.659 48.83,147.992 48.5,165.5C 73.1667,165.5 97.8333,165.5 122.5,165.5C 122.5,165.833 122.5,166.167 122.5,166.5C 97.5,166.5 72.5,166.5 47.5,166.5C 47.5,148.833 47.5,131.167 47.5,113.5 Z"/></g>
<g><path style="opacity:0.18" fill="#ccd6d9" d="M 297.5,158.5 C 297.57,162.425 296.903,166.091 295.5,169.5C 295.43,165.575 296.097,161.909 297.5,158.5 Z"/></g>
<g><path style="opacity:1" fill="#678f9e" d="M 582.5,167.5 C 587.897,169.716 593.563,170.882 599.5,171C 600.634,172.016 600.301,172.683 598.5,173C 599.942,173.377 600.942,174.21 601.5,175.5C 594.776,173.597 588.443,170.931 582.5,167.5 Z"/></g>
<g><path style="opacity:0.098" fill="#b2cfd5" d="M 707.5,163.5 C 709.088,165.527 709.588,167.861 709,170.5C 708.184,171.823 707.017,172.489 705.5,172.5C 706.476,171.185 707.476,169.852 708.5,168.5C 707.691,166.929 707.357,165.262 707.5,163.5 Z"/></g>
<g><path style="opacity:0.243" fill="#b8d5da" d="M 704.5,173.5 C 703.341,175.25 701.674,176.25 699.5,176.5C 700.659,174.75 702.326,173.75 704.5,173.5 Z"/></g>
<g><path style="opacity:0.678" fill="#92abbc" d="M 219.5,177.5 C 222.649,176.835 225.982,176.502 229.5,176.5C 234.437,176.3 239.104,176.967 243.5,178.5C 235.525,177.724 227.525,177.39 219.5,177.5 Z"/></g>
<g><path style="opacity:0.161" fill="#d0e3e7" d="M 604.5,176.5 C 606.553,176.402 608.22,177.069 609.5,178.5C 607.447,178.598 605.78,177.931 604.5,176.5 Z"/></g>
<g><path style="opacity:1" fill="#407399" d="M 219.5,177.5 C 227.525,177.39 235.525,177.724 243.5,178.5C 247.423,180.088 250.423,182.754 252.5,186.5C 256.367,187.487 256.367,186.987 252.5,185C 254.197,184.616 255.863,184.782 257.5,185.5C 263.014,189.341 267.014,194.341 269.5,200.5C 269.747,203.854 270.747,206.854 272.5,209.5C 273.973,224.805 270.973,239.138 263.5,252.5C 263.573,254.027 262.906,255.027 261.5,255.5C 260.5,255.5 259.5,255.5 258.5,255.5C 258.5,256.833 258.5,258.167 258.5,259.5C 254.932,259.759 253.599,261.759 254.5,265.5C 250.511,270.821 246.178,275.821 241.5,280.5C 239.811,281.931 237.811,282.764 235.5,283C 234.423,286.413 232.256,288.913 229,290.5C 227.924,292.067 227.091,293.734 226.5,295.5C 226.543,296.416 226.876,297.083 227.5,297.5C 238.5,297.5 249.5,297.5 260.5,297.5C 265.629,299.777 270.629,302.444 275.5,305.5C 277.005,311.283 276.672,316.95 274.5,322.5C 274.167,323.5 273.5,324.167 272.5,324.5C 270.973,324.427 269.973,325.094 269.5,326.5C 267.436,326.687 265.436,327.187 263.5,328C 240.167,328.667 216.833,328.667 193.5,328C 191.26,327.023 188.927,326.523 186.5,326.5C 185.5,324.833 184.167,323.5 182.5,322.5C 181.239,317.175 181.239,311.842 182.5,306.5C 184.229,305.883 185.729,304.883 187,303.5C 190.354,297.076 194.854,291.743 200.5,287.5C 201.647,287.818 202.481,288.484 203,289.5C 203.333,289.167 203.667,288.833 204,288.5C 203.125,286.689 202.791,284.689 203,282.5C 204.406,281.332 205.572,281.665 206.5,283.5C 207.331,281.527 207.498,279.527 207,277.5C 208.016,276.366 208.683,276.699 209,278.5C 211.223,276.277 212.556,273.611 213,270.5C 214.257,268.254 216.09,266.921 218.5,266.5C 218.448,264.097 218.781,261.764 219.5,259.5C 227.539,253.769 232.872,246.103 235.5,236.5C 237.26,232.141 238.593,227.641 239.5,223C 239.276,218.482 237.61,214.648 234.5,211.5C 234.389,210.883 234.056,210.383 233.5,210C 230.183,209.502 226.85,209.335 223.5,209.5C 221.54,210.138 219.707,210.138 218,209.5C 217.51,210.793 217.343,212.127 217.5,213.5C 216.5,213.5 215.5,213.5 214.5,213.5C 213.092,218.728 211.926,224.062 211,229.5C 210.667,229.167 210.333,228.833 210,228.5C 209.39,231.022 208.057,233.022 206,234.5C 204.991,236.025 204.491,237.692 204.5,239.5C 199.833,240.833 195.167,240.833 190.5,239.5C 184.394,233.169 182.06,225.503 183.5,216.5C 183.5,216.167 183.5,215.833 183.5,215.5C 186.596,208.311 189.929,201.311 193.5,194.5C 199.791,185.345 208.458,179.678 219.5,177.5 Z"/></g>
<g><path style="opacity:0.847" fill="#99bac7" d="M 609.5,178.5 C 610.167,178.5 610.833,178.5 611.5,178.5C 613.38,178.229 614.713,178.896 615.5,180.5C 613.214,180.405 611.214,179.738 609.5,178.5 Z"/></g>
<g><path style="opacity:0.227" fill="#c2dbe1" d="M 699.5,176.5 C 695.192,180.152 690.192,182.486 684.5,183.5C 689.311,180.93 694.311,178.597 699.5,176.5 Z"/></g>
<g><path style="opacity:0.761" fill="#afcad1" d="M 615.5,180.5 C 618.206,180.575 620.873,180.908 623.5,181.5C 625.629,182.203 627.629,183.203 629.5,184.5C 624.562,183.769 619.895,182.435 615.5,180.5 Z"/></g>
<g><path style="opacity:0.687" fill="#889396" d="M 469.5,155.5 C 471.871,162.174 472.871,169.174 472.5,176.5C 472.824,183.354 472.491,190.021 471.5,196.5C 471.819,182.771 471.152,169.105 469.5,155.5 Z"/></g>
<g><path style="opacity:0.413" fill="#a4acb0" d="M 423.5,161.5 C 426.872,168.839 428.205,176.672 427.5,185C 427.606,194.988 426.439,204.821 424,214.5C 423.617,215.056 423.117,215.389 422.5,215.5C 427.377,197.588 427.71,179.588 423.5,161.5 Z"/></g>
<g><path style="opacity:0.597" fill="#899097" d="M 341.5,172.5 C 341.233,178.838 340.9,185.171 340.5,191.5C 340.5,192.833 340.5,194.167 340.5,195.5C 339.346,189.013 339.179,182.346 340,175.5C 340.232,174.263 340.732,173.263 341.5,172.5 Z"/></g>
<g><path style="opacity:1" fill="#6e91ad" d="M 243.5,178.5 C 249.033,179.266 253.699,181.6 257.5,185.5C 255.863,184.782 254.197,184.616 252.5,185C 256.367,186.987 256.367,187.487 252.5,186.5C 250.423,182.754 247.423,180.088 243.5,178.5 Z"/></g>
<g><path style="opacity:0.102" fill="#cadfe7" d="M 629.5,184.5 C 635.75,184.771 641.75,185.771 647.5,187.5C 641.25,187.229 635.25,186.229 629.5,184.5 Z"/></g>
<g><path style="opacity:0.017" fill="#ebf4f6" d="M 684.5,183.5 C 678.574,186.19 672.241,187.69 665.5,188C 659.984,188.817 654.65,188.651 649.5,187.5C 661.337,187.562 673.004,186.229 684.5,183.5 Z"/></g>
<g><path style="opacity:1" fill="#8bc5db" d="M 611.5,190.5 C 618.392,192.463 625.059,194.796 631.5,197.5C 627.414,196.917 623.414,195.917 619.5,194.5C 615.521,195.844 612.854,194.51 611.5,190.5 Z"/></g>
<g><path style="opacity:0.106" fill="#d0f0fb" d="M 715.5,191.5 C 716.077,190.227 716.743,190.227 717.5,191.5C 718.309,193.071 718.643,194.738 718.5,196.5C 717.687,194.739 716.687,193.072 715.5,191.5 Z"/></g>
<g><path style="opacity:1" fill="#4caad3" d="M 537.5,165.5 C 540.187,165.336 542.854,165.503 545.5,166C 554.961,168.572 564.294,171.406 573.5,174.5C 586.325,179.657 598.991,184.991 611.5,190.5C 612.854,194.51 615.521,195.844 619.5,194.5C 623.414,195.917 627.414,196.917 631.5,197.5C 635.698,199.538 640.031,201.205 644.5,202.5C 642.453,202.489 640.453,202.156 638.5,201.5C 637.833,201.833 637.167,202.167 636.5,202.5C 637.5,203.167 638.5,203.833 639.5,204.5C 635.821,204.937 632.154,205.27 628.5,205.5C 629.936,206.934 631.602,208.1 633.5,209C 629.789,209.175 626.122,209.675 622.5,210.5C 623.729,212.918 625.729,213.918 628.5,213.5C 632.145,212.884 635.812,212.55 639.5,212.5C 639.539,214.359 638.706,215.692 637,216.5C 634.974,215.981 632.974,215.647 631,215.5C 630.25,216.126 629.416,216.626 628.5,217C 630.747,218.655 633.08,218.988 635.5,218C 636.167,219.667 636.833,221.333 637.5,223C 641.579,223.664 644.912,225.497 647.5,228.5C 633.216,224.405 619.216,219.739 605.5,214.5C 601.195,212.254 596.529,210.92 591.5,210.5C 577.001,206.934 562.335,204.267 547.5,202.5C 540.324,201.397 532.991,201.397 525.5,202.5C 525.57,197.716 526.237,193.049 527.5,188.5C 529.087,181.987 531.254,175.654 534,169.5C 534.498,167.456 535.665,166.122 537.5,165.5 Z"/></g>
<g><path style="opacity:0.349" fill="#c1e7f7" d="M 631.5,197.5 C 647.816,202.33 664.483,204.33 681.5,203.5C 669.269,204.89 656.936,204.557 644.5,202.5C 640.031,201.205 635.698,199.538 631.5,197.5 Z"/></g>
<g><path style="opacity:0.941" fill="#9ccddf" d="M 527.5,188.5 C 526.237,193.049 525.57,197.716 525.5,202.5C 532.991,201.397 540.324,201.397 547.5,202.5C 539.755,202.519 532.088,203.019 524.5,204C 523.667,198.494 524.667,193.327 527.5,188.5 Z"/></g>
<g><path style="opacity:0.616" fill="#acb6b7" d="M 340.5,191.5 C 341.487,196.32 342.153,201.32 342.5,206.5C 340.918,203.124 340.251,199.458 340.5,195.5C 340.5,194.167 340.5,192.833 340.5,191.5 Z"/></g>
<g><path style="opacity:0.169" fill="#c2cacd" d="M 472.5,176.5 C 474,190.467 473.166,204.467 470,218.5C 467.95,226.245 465.117,233.579 461.5,240.5C 467.037,226.352 470.37,211.685 471.5,196.5C 472.491,190.021 472.824,183.354 472.5,176.5 Z"/></g>
<g><path style="opacity:0.137" fill="#cde0ec" d="M 269.5,200.5 C 271.472,203.084 272.472,206.084 272.5,209.5C 270.747,206.854 269.747,203.854 269.5,200.5 Z"/></g>
<g><path style="opacity:1" fill="#46a3d1" d="M 715.5,191.5 C 716.687,193.072 717.687,194.739 718.5,196.5C 719.546,205.723 721.213,214.723 723.5,223.5C 723.5,224.5 723.5,225.5 723.5,226.5C 723.5,233.5 723.5,240.5 723.5,247.5C 718.167,247.5 712.833,247.5 707.5,247.5C 702.191,246.924 697.191,245.591 692.5,243.5C 688.715,241.734 684.715,240.234 680.5,239C 679.643,238.311 678.977,237.478 678.5,236.5C 672.426,234.247 666.093,232.914 659.5,232.5C 655.216,231.739 651.216,230.405 647.5,228.5C 644.912,225.497 641.579,223.664 637.5,223C 636.833,221.333 636.167,219.667 635.5,218C 633.08,218.988 630.747,218.655 628.5,217C 629.416,216.626 630.25,216.126 631,215.5C 632.974,215.647 634.974,215.981 637,216.5C 638.706,215.692 639.539,214.359 639.5,212.5C 635.812,212.55 632.145,212.884 628.5,213.5C 625.729,213.918 623.729,212.918 622.5,210.5C 626.122,209.675 629.789,209.175 633.5,209C 631.602,208.1 629.936,206.934 628.5,205.5C 632.154,205.27 635.821,204.937 639.5,204.5C 638.5,203.833 637.5,203.167 636.5,202.5C 637.167,202.167 637.833,201.833 638.5,201.5C 640.453,202.156 642.453,202.489 644.5,202.5C 656.936,204.557 669.269,204.89 681.5,203.5C 693.404,201.308 704.738,197.308 715.5,191.5 Z"/></g>
<g><path style="opacity:0.388" fill="#bee3f2" d="M 718.5,196.5 C 721.042,205.216 722.708,214.216 723.5,223.5C 721.213,214.723 719.546,205.723 718.5,196.5 Z"/></g>
<g><path style="opacity:0.18" fill="#cae0ef" d="M 223.5,210.5 C 223.5,210.167 223.5,209.833 223.5,209.5C 226.85,209.335 230.183,209.502 233.5,210C 234.056,210.383 234.389,210.883 234.5,211.5C 230.901,210.656 227.234,210.323 223.5,210.5 Z"/></g>
<g><path style="opacity:0.529" fill="#a5acb1" d="M 342.5,207.5 C 343.87,210.619 344.87,213.952 345.5,217.5C 343.32,214.619 342.32,211.286 342.5,207.5 Z"/></g>
<g><path style="opacity:0.604" fill="#b8e5f4" d="M 591.5,210.5 C 596.529,210.92 601.195,212.254 605.5,214.5C 600.562,213.769 595.895,212.435 591.5,210.5 Z"/></g>
<g><path style="opacity:0.612" fill="#9fb6c8" d="M 193.5,194.5 C 189.929,201.311 186.596,208.311 183.5,215.5C 184.551,207.316 187.884,200.316 193.5,194.5 Z"/></g>
<g><path style="opacity:0.77" fill="#8d9497" d="M 122.5,206.5 C 123.497,225.326 123.83,244.326 123.5,263.5C 123.167,263.5 122.833,263.5 122.5,263.5C 121.178,244.804 121.178,226.137 122.5,207.5C 122.5,207.167 122.5,206.833 122.5,206.5 Z"/></g>
<g><path style="opacity:0.204" fill="#c3cbcc" d="M 422.5,215.5 C 422.598,217.553 421.931,219.22 420.5,220.5C 420.402,218.447 421.069,216.78 422.5,215.5 Z"/></g>
<g><path style="opacity:0.286" fill="#bbc3c6" d="M 295.5,170.5 C 293.93,194.259 297.263,217.259 305.5,239.5C 297.378,222.893 293.711,205.226 294.5,186.5C 294.501,180.989 294.834,175.656 295.5,170.5 Z"/></g>
<g><path style="opacity:0.29" fill="#c4cbce" d="M 346.5,219.5 C 347.674,220.514 348.34,221.847 348.5,223.5C 346.896,222.713 346.229,221.38 346.5,219.5 Z"/></g>
<g><path style="opacity:0.522" fill="#a1bace" d="M 183.5,216.5 C 182.06,225.503 184.394,233.169 190.5,239.5C 186.621,237.794 184.121,234.794 183,230.5C 182.185,225.648 182.352,220.981 183.5,216.5 Z"/></g>
<g><path style="opacity:0.192" fill="#c8ced0" d="M 419.5,222.5 C 419.25,224.674 418.25,226.341 416.5,227.5C 416.75,225.326 417.75,223.659 419.5,222.5 Z"/></g>
<g><path style="opacity:0.294" fill="#b8c7cb" d="M 349.5,225.5 C 350.906,225.973 351.573,226.973 351.5,228.5C 350.094,228.027 349.427,227.027 349.5,225.5 Z"/></g>
<g><path style="opacity:1" fill="#1e809a" d="M 559.5,227.5 C 560.145,228.812 561.145,229.812 562.5,230.5C 568.91,229.894 575.576,229.227 582.5,228.5C 586.445,229.268 590.445,229.768 594.5,230C 595.715,232.096 596.549,231.929 597,229.5C 597.333,229.833 597.667,230.167 598,230.5C 608.629,227.729 608.963,228.396 599,232.5C 598.086,231.346 597.253,231.513 596.5,233C 592.129,233.172 587.796,233.672 583.5,234.5C 590.811,235.331 598.144,235.831 605.5,236C 601.954,237.174 598.287,237.84 594.5,238C 594.043,238.414 593.709,238.914 593.5,239.5C 594.884,239.99 596.384,240.324 598,240.5C 598.499,245.489 598.666,250.489 598.5,255.5C 596.5,255.5 594.5,255.5 592.5,255.5C 592.5,256.5 592.5,257.5 592.5,258.5C 595.969,257.887 597.969,259.221 598.5,262.5C 595.927,262.148 593.594,262.648 591.5,264C 594.513,264.502 597.513,265.002 600.5,265.5C 600.5,265.833 600.5,266.167 600.5,266.5C 589.711,267.864 579.044,269.864 568.5,272.5C 561.096,273.824 553.93,275.157 547,276.5C 545.513,275.747 545.346,274.914 546.5,274C 539.54,272.944 539.207,272.111 545.5,271.5C 545.168,261.145 545.501,250.812 546.5,240.5C 548.776,239.787 551.109,239.287 553.5,239C 545.745,237.645 538.079,235.812 530.5,233.5C 534.703,233.274 539.036,233.274 543.5,233.5C 543.5,232.5 543.5,231.5 543.5,230.5C 546.119,230.232 548.619,230.565 551,231.5C 552.067,230.809 553.234,230.309 554.5,230C 553.833,229 553.167,228 552.5,227C 555.039,226.204 557.372,226.371 559.5,227.5 Z"/></g>
<g><path style="opacity:0.027" fill="#c3e8ef" d="M 617.5,228.5 C 623.17,228.917 628.503,230.251 633.5,232.5C 627.906,231.768 622.573,230.435 617.5,228.5 Z"/></g>
<g><path style="opacity:0.337" fill="#b7c2c5" d="M 416.5,227.5 C 416.573,229.027 415.906,230.027 414.5,230.5C 414.427,228.973 415.094,227.973 416.5,227.5 Z"/></g>
<g><path style="opacity:0.416" fill="#b9c1c4" d="M 351.5,228.5 C 353.262,229.262 354.262,230.596 354.5,232.5C 352.738,231.738 351.738,230.404 351.5,228.5 Z"/></g>
<g><path style="opacity:0.251" fill="#c0d5e4" d="M 272.5,209.5 C 276.017,225.11 273.017,239.444 263.5,252.5C 270.973,239.138 273.973,224.805 272.5,209.5 Z"/></g>
<g><path style="opacity:0.133" fill="#bde3eb" d="M 633.5,232.5 C 637.951,233.149 642.284,234.316 646.5,236C 652.492,238.001 658.158,240.501 663.5,243.5C 653.283,240.208 643.283,236.541 633.5,232.5 Z"/></g>
<g><path style="opacity:0.004" fill="#fefffe" d="M 647.5,233.5 C 646.833,232.167 646.833,232.167 647.5,233.5 Z"/></g>
<g><path style="opacity:1" fill="#6b8da9" d="M 223.5,209.5 C 223.5,209.833 223.5,210.167 223.5,210.5C 221.873,212.63 220.04,214.63 218,216.5C 215.194,223.25 212.194,229.917 209,236.5C 206.323,240.338 202.656,242.005 198,241.5C 195.134,241.7 192.634,241.033 190.5,239.5C 195.167,240.833 199.833,240.833 204.5,239.5C 204.491,237.692 204.991,236.025 206,234.5C 208.057,233.022 209.39,231.022 210,228.5C 210.333,228.833 210.667,229.167 211,229.5C 211.926,224.062 213.092,218.728 214.5,213.5C 215.5,213.5 216.5,213.5 217.5,213.5C 217.343,212.127 217.51,210.793 218,209.5C 219.707,210.138 221.54,210.138 223.5,209.5 Z"/></g>
<g><path style="opacity:0.004" fill="#fefffe" d="M 647.5,233.5 C 648.833,234.167 648.833,234.167 647.5,233.5 Z"/></g>
<g><path style="opacity:0.004" fill="#d3d9dc" d="M 358.5,236.5 C 360.404,236.738 361.738,237.738 362.5,239.5C 360.596,239.262 359.262,238.262 358.5,236.5 Z"/></g>
<g><path style="opacity:1" fill="#75b4d1" d="M 659.5,232.5 C 666.093,232.914 672.426,234.247 678.5,236.5C 678.977,237.478 679.643,238.311 680.5,239C 684.715,240.234 688.715,241.734 692.5,243.5C 681.086,240.806 670.086,237.14 659.5,232.5 Z"/></g>
<g><path style="opacity:0.38" fill="#c1cacb" d="M 122.5,206.5 C 122.5,206.833 122.5,207.167 122.5,207.5C 97.8333,207.5 73.1667,207.5 48.5,207.5C 48.8302,226.008 48.4968,244.341 47.5,262.5C 47.5,243.833 47.5,225.167 47.5,206.5C 72.5,206.5 97.5,206.5 122.5,206.5 Z"/></g>
<g><path style="opacity:1" fill="#2b879f" d="M 605.5,226.5 C 595.494,226.334 585.494,226.5 575.5,227C 572.678,228.437 569.844,228.271 567,226.5C 564.619,227.435 562.119,227.768 559.5,227.5C 557.372,226.371 555.039,226.204 552.5,227C 553.167,228 553.833,229 554.5,230C 553.234,230.309 552.067,230.809 551,231.5C 548.619,230.565 546.119,230.232 543.5,230.5C 543.5,231.5 543.5,232.5 543.5,233.5C 539.036,233.274 534.703,233.274 530.5,233.5C 538.079,235.812 545.745,237.645 553.5,239C 551.109,239.287 548.776,239.787 546.5,240.5C 545.501,250.812 545.168,261.145 545.5,271.5C 539.207,272.111 539.54,272.944 546.5,274C 545.346,274.914 545.513,275.747 547,276.5C 553.93,275.157 561.096,273.824 568.5,272.5C 556.478,276.753 544.644,281.753 533,287.5C 532.228,287.355 531.561,287.022 531,286.5C 529.201,282.93 527.701,279.263 526.5,275.5C 526.33,274.178 526.663,273.011 527.5,272C 523.75,261.451 521.083,250.618 519.5,239.5C 519.5,235.833 519.5,232.167 519.5,228.5C 537.232,225.845 555.066,224.178 573,223.5C 584.059,223.669 594.893,224.669 605.5,226.5 Z"/></g>
<g><path style="opacity:0.408" fill="#adb4b8" d="M 414.5,230.5 C 411.709,235.955 407.376,239.622 401.5,241.5C 406.102,238.238 410.435,234.572 414.5,230.5 Z"/></g>
<g><path style="opacity:1" fill="#207792" d="M 605.5,226.5 C 609.764,226.344 613.764,227.011 617.5,228.5C 622.573,230.435 627.906,231.768 633.5,232.5C 643.283,236.541 653.283,240.208 663.5,243.5C 665.426,245.293 667.759,246.293 670.5,246.5C 672.32,248.448 674.654,249.448 677.5,249.5C 691.068,255.95 705.068,261.284 719.5,265.5C 719.5,265.833 719.5,266.167 719.5,266.5C 715.529,265.808 712.029,265.808 709,266.5C 708.517,267.448 708.351,268.448 708.5,269.5C 705.428,269.817 702.428,269.484 699.5,268.5C 702.304,267.895 704.971,267.062 707.5,266C 702.66,260.548 696.993,259.381 690.5,262.5C 686.846,261.1 686.512,259.1 689.5,256.5C 683.138,254.876 681.804,256.876 685.5,262.5C 684.593,265.421 684.26,268.421 684.5,271.5C 683.325,271.281 682.325,271.614 681.5,272.5C 684.294,274.984 687.627,276.151 691.5,276C 694.67,276.901 697.004,278.735 698.5,281.5C 681.119,274.321 663.119,269.321 644.5,266.5C 630.031,264.201 615.364,263.867 600.5,265.5C 597.513,265.002 594.513,264.502 591.5,264C 593.594,262.648 595.927,262.148 598.5,262.5C 597.969,259.221 595.969,257.887 592.5,258.5C 592.5,257.5 592.5,256.5 592.5,255.5C 594.5,255.5 596.5,255.5 598.5,255.5C 598.666,250.489 598.499,245.489 598,240.5C 596.384,240.324 594.884,239.99 593.5,239.5C 593.709,238.914 594.043,238.414 594.5,238C 598.287,237.84 601.954,237.174 605.5,236C 598.144,235.831 590.811,235.331 583.5,234.5C 587.796,233.672 592.129,233.172 596.5,233C 597.253,231.513 598.086,231.346 599,232.5C 608.963,228.396 608.629,227.729 598,230.5C 597.667,230.167 597.333,229.833 597,229.5C 596.549,231.929 595.715,232.096 594.5,230C 590.445,229.768 586.445,229.268 582.5,228.5C 575.576,229.227 568.91,229.894 562.5,230.5C 561.145,229.812 560.145,228.812 559.5,227.5C 562.119,227.768 564.619,227.435 567,226.5C 569.844,228.271 572.678,228.437 575.5,227C 585.494,226.5 595.494,226.334 605.5,226.5 Z"/></g>
<g><path style="opacity:1" fill="#737f82" d="M 461.5,240.5 C 461.25,242.674 460.25,244.341 458.5,245.5C 458.5,243.833 458.5,242.167 458.5,240.5C 459.5,240.5 460.5,240.5 461.5,240.5 Z"/></g>
<g><path style="opacity:0.992" fill="#919a9e" d="M 306.5,241.5 C 309.462,243.665 311.129,246.665 311.5,250.5C 309.44,247.76 307.774,244.76 306.5,241.5 Z"/></g>
<g><path style="opacity:0.055" fill="#c9d1d8" d="M 362.5,239.5 C 375.209,245.373 388.209,246.039 401.5,241.5C 399.266,243.446 396.599,244.613 393.5,245C 386.5,245.667 379.5,245.667 372.5,245C 368.654,243.914 365.32,242.081 362.5,239.5 Z"/></g>
<g><path style="opacity:0.314" fill="#add3dc" d="M 663.5,243.5 C 666.241,243.707 668.574,244.707 670.5,246.5C 667.759,246.293 665.426,245.293 663.5,243.5 Z"/></g>
<g><path style="opacity:0.584" fill="#bedeec" d="M 723.5,226.5 C 724.816,233.312 725.316,240.312 725,247.5C 719.096,249.866 713.263,249.866 707.5,247.5C 712.833,247.5 718.167,247.5 723.5,247.5C 723.5,240.5 723.5,233.5 723.5,226.5 Z"/></g>
<g><path style="opacity:0.388" fill="#a7cbd6" d="M 670.5,246.5 C 673.241,246.707 675.574,247.707 677.5,249.5C 674.654,249.448 672.32,248.448 670.5,246.5 Z"/></g>
<g><path style="opacity:0.847" fill="#9da4aa" d="M 311.5,250.5 C 313.446,251.035 314.446,252.368 314.5,254.5C 313.026,253.564 312.026,252.23 311.5,250.5 Z"/></g>
<g><path style="opacity:1" fill="#7394ad" d="M 235.5,236.5 C 232.872,246.103 227.539,253.769 219.5,259.5C 224.841,251.828 230.174,244.161 235.5,236.5 Z"/></g>
<g><path style="opacity:0.031" fill="#c2d3d7" d="M 453.5,253.5 C 453.573,255.027 452.906,256.027 451.5,256.5C 451.427,254.973 452.094,253.973 453.5,253.5 Z"/></g>
<g><path style="opacity:1" fill="#206e8b" d="M 719.5,266.5 C 720.451,267.919 720.784,269.585 720.5,271.5C 717.93,276.311 715.597,281.311 713.5,286.5C 711.194,286.007 708.861,285.674 706.5,285.5C 703.515,284.674 700.849,283.341 698.5,281.5C 697.004,278.735 694.67,276.901 691.5,276C 687.627,276.151 684.294,274.984 681.5,272.5C 682.325,271.614 683.325,271.281 684.5,271.5C 684.26,268.421 684.593,265.421 685.5,262.5C 681.804,256.876 683.138,254.876 689.5,256.5C 686.512,259.1 686.846,261.1 690.5,262.5C 696.993,259.381 702.66,260.548 707.5,266C 704.971,267.062 702.304,267.895 699.5,268.5C 702.428,269.484 705.428,269.817 708.5,269.5C 708.351,268.448 708.517,267.448 709,266.5C 712.029,265.808 715.529,265.808 719.5,266.5 Z"/></g>
<g><path style="opacity:1" fill="#616e74" d="M 314.5,254.5 C 316.012,256.317 318.012,257.317 320.5,257.5C 320.629,259.216 320.962,260.883 321.5,262.5C 321.167,262.5 320.833,262.5 320.5,262.5C 318.115,260.116 316.115,257.45 314.5,254.5 Z"/></g>
<g><path style="opacity:0.976" fill="#849eb3" d="M 261.5,255.5 C 259.938,259.392 257.605,262.725 254.5,265.5C 253.599,261.759 254.932,259.759 258.5,259.5C 258.5,258.167 258.5,256.833 258.5,255.5C 259.5,255.5 260.5,255.5 261.5,255.5 Z"/></g>
<g><path style="opacity:0.02" fill="#d4d7d9" d="M 449.5,258.5 C 449.573,260.027 448.906,261.027 447.5,261.5C 447.427,259.973 448.094,258.973 449.5,258.5 Z"/></g>
<g><path style="opacity:0.388" fill="#ccd3d4" d="M 320.5,262.5 C 320.833,262.5 321.167,262.5 321.5,262.5C 323.5,263.833 325.167,265.5 326.5,267.5C 323.911,266.581 321.911,264.914 320.5,262.5 Z"/></g>
<g><path style="opacity:1" fill="#5b9eab" d="M 519.5,239.5 C 521.083,250.618 523.75,261.451 527.5,272C 526.663,273.011 526.33,274.178 526.5,275.5C 521.398,264.156 519.064,252.156 519.5,239.5 Z"/></g>
<g><path style="opacity:0.004" fill="#fefffe" d="M 718.5,263.5 C 719.833,264.167 719.833,264.167 718.5,263.5 Z"/></g>
<g><path style="opacity:0.253" fill="#b9dee8" d="M 644.5,266.5 C 629.832,265.193 615.165,265.193 600.5,266.5C 600.5,266.167 600.5,265.833 600.5,265.5C 615.364,263.867 630.031,264.201 644.5,266.5 Z"/></g>
<g><path style="opacity:0.525" fill="#c5d9df" d="M 719.5,266.5 C 719.5,266.167 719.5,265.833 719.5,265.5C 720.995,265.415 721.995,266.081 722.5,267.5C 722.006,269.026 721.339,270.359 720.5,271.5C 720.784,269.585 720.451,267.919 719.5,266.5 Z"/></g>
<g><path style="opacity:0.784" fill="#9ba8ab" d="M 328.5,269.5 C 330.404,269.738 331.738,270.738 332.5,272.5C 330.596,272.262 329.262,271.262 328.5,269.5 Z"/></g>
<g><path style="opacity:0.651" fill="#9ebcd2" d="M 211.5,269.5 C 210.581,272.089 208.914,274.089 206.5,275.5C 207.419,272.911 209.086,270.911 211.5,269.5 Z"/></g>
<g><path style="opacity:0.993" fill="#616d71" d="M 442.5,266.5 C 438.761,270.568 434.428,273.901 429.5,276.5C 429.808,272.991 431.808,271.324 435.5,271.5C 435.5,270.5 435.5,269.5 435.5,268.5C 437.737,267.551 440.071,266.884 442.5,266.5 Z"/></g>
<g><path style="opacity:0.561" fill="#959fa1" d="M 332.5,272.5 C 334.027,272.427 335.027,273.094 335.5,274.5C 333.973,274.573 332.973,273.906 332.5,272.5 Z"/></g>
<g><path style="opacity:0.553" fill="#929da3" d="M 335.5,274.5 C 337.027,274.427 338.027,275.094 338.5,276.5C 336.973,276.573 335.973,275.906 335.5,274.5 Z"/></g>
<g><path style="opacity:0.063" fill="#ccd0d4" d="M 10.5,276.5 C 11.9063,276.973 12.573,277.973 12.5,279.5C 11.0937,279.027 10.427,278.027 10.5,276.5 Z"/></g>
<g><path style="opacity:0.012" fill="#dadfe3" d="M 122.5,263.5 C 122.833,263.5 123.167,263.5 123.5,263.5C 124.319,269.625 126.319,275.291 129.5,280.5C 125.043,275.818 122.71,270.152 122.5,263.5 Z"/></g>
<g><path style="opacity:0.396" fill="#b2b8bb" d="M 338.5,276.5 C 340.027,276.427 341.027,277.094 341.5,278.5C 339.973,278.573 338.973,277.906 338.5,276.5 Z"/></g>
<g><path style="opacity:1" fill="#577e9c" d="M 219.5,259.5 C 218.781,261.764 218.448,264.097 218.5,266.5C 216.09,266.921 214.257,268.254 213,270.5C 212.556,273.611 211.223,276.277 209,278.5C 208.683,276.699 208.016,276.366 207,277.5C 207.498,279.527 207.331,281.527 206.5,283.5C 205.572,281.665 204.406,281.332 203,282.5C 202.791,284.689 203.125,286.689 204,288.5C 203.667,288.833 203.333,289.167 203,289.5C 202.481,288.484 201.647,287.818 200.5,287.5C 194.854,291.743 190.354,297.076 187,303.5C 185.729,304.883 184.229,305.883 182.5,306.5C 185.856,299.785 190.19,293.785 195.5,288.5C 197.587,287.415 198.92,285.749 199.5,283.5C 201.117,280.216 203.45,277.549 206.5,275.5C 208.914,274.089 210.581,272.089 211.5,269.5C 213.208,265.428 215.874,262.095 219.5,259.5 Z"/></g>
<g><path style="opacity:0.725" fill="#a1abad" d="M 12.5,279.5 C 14.7488,280.08 16.4154,281.413 17.5,283.5C 15.2512,282.92 13.5846,281.587 12.5,279.5 Z"/></g>
<g><path style="opacity:0.588" fill="#b3b9bb" d="M 129.5,280.5 C 131.027,280.427 132.027,281.094 132.5,282.5C 130.973,282.573 129.973,281.906 129.5,280.5 Z"/></g>
<g><path style="opacity:0.663" fill="#bbe1f2" d="M 663.5,279.5 C 644.771,279.016 626.104,279.683 607.5,281.5C 606.167,281.5 604.833,281.5 603.5,281.5C 623.391,277.158 643.391,276.492 663.5,279.5 Z"/></g>
<g><path style="opacity:0.396" fill="#bde4f6" d="M 665.5,279.5 C 676.429,280.812 686.763,283.812 696.5,288.5C 686.741,285.081 676.741,282.581 666.5,281C 665.944,280.617 665.611,280.117 665.5,279.5 Z"/></g>
<g><path style="opacity:0.467" fill="#97a1a5" d="M 423.5,279.5 C 419.889,281.931 415.889,283.597 411.5,284.5C 415.111,282.069 419.111,280.403 423.5,279.5 Z"/></g>
<g><path style="opacity:1" fill="#60bae3" d="M 663.5,279.5 C 664.167,279.5 664.833,279.5 665.5,279.5C 665.611,280.117 665.944,280.617 666.5,281C 676.741,282.581 686.741,285.081 696.5,288.5C 698.873,290.501 701.207,292.501 703.5,294.5C 703.167,295.167 702.833,295.833 702.5,296.5C 701.387,294.969 699.887,293.969 698,293.5C 697.167,293.667 696.333,293.833 695.5,294C 699.03,294.672 700.363,296.838 699.5,300.5C 698.167,300.5 696.833,300.5 695.5,300.5C 695.167,303.5 693.5,305.167 690.5,305.5C 690.5,306.5 690.5,307.5 690.5,308.5C 689.5,308.5 688.5,308.5 687.5,308.5C 687.5,309.5 687.5,310.5 687.5,311.5C 684.924,312.107 682.591,313.274 680.5,315C 679.62,316.356 679.286,317.856 679.5,319.5C 673.533,320.198 667.533,320.698 661.5,321C 658.949,321.002 656.949,321.836 655.5,323.5C 654.5,323.5 653.5,323.5 652.5,323.5C 641.136,324.338 630.469,327.338 620.5,332.5C 615.118,332.609 610.284,334.275 606,337.5C 603.21,336.906 600.71,335.739 598.5,334C 595.522,333.304 592.522,332.804 589.5,332.5C 585.922,330.504 582.589,328.004 579.5,325C 575.305,324.324 571.638,322.491 568.5,319.5C 567.311,318.571 565.978,318.238 564.5,318.5C 564.305,314.808 562.305,312.974 558.5,313C 555.54,309.856 552.206,307.356 548.5,305.5C 548.433,304.041 548.766,302.708 549.5,301.5C 553.729,297.55 558.729,294.883 564.5,293.5C 569.46,292.511 574.46,291.678 579.5,291C 588.897,287.727 598.231,284.56 607.5,281.5C 626.104,279.683 644.771,279.016 663.5,279.5 Z"/></g>
<g><path style="opacity:0.58" fill="#a0a9ac" d="M 345.5,280.5 C 350.517,281.393 355.183,283.06 359.5,285.5C 354.362,284.921 349.695,283.254 345.5,280.5 Z"/></g>
<g><path style="opacity:0.133" fill="#c6e3ed" d="M 720.5,271.5 C 719.486,277.192 717.152,282.192 713.5,286.5C 715.597,281.311 717.93,276.311 720.5,271.5 Z"/></g>
<g><path style="opacity:0.475" fill="#a1aaac" d="M 17.5,283.5 C 22.7968,284.275 28.1301,284.608 33.5,284.5C 31.5274,285.163 29.3608,285.496 27,285.5C 23.5226,285.672 20.356,285.006 17.5,283.5 Z"/></g>
<g><path style="opacity:0.476" fill="#939c9f" d="M 132.5,282.5 C 136.094,283.457 139.76,284.124 143.5,284.5C 146.517,284.232 149.517,283.898 152.5,283.5C 152.082,284.222 151.416,284.722 150.5,285C 145.833,285.667 141.167,285.667 136.5,285C 134.934,284.392 133.6,283.558 132.5,282.5 Z"/></g>
<g><path style="opacity:0.973" fill="#8db4c3" d="M 706.5,285.5 C 708.861,285.674 711.194,286.007 713.5,286.5C 713.53,287.497 713.03,288.164 712,288.5C 709.88,287.86 708.046,286.86 706.5,285.5 Z"/></g>
<g><path style="opacity:0.604" fill="#a9c4d3" d="M 199.5,283.5 C 198.92,285.749 197.587,287.415 195.5,288.5C 196.08,286.251 197.413,284.585 199.5,283.5 Z"/></g>
<g><path style="opacity:0.004" fill="#fefffe" d="M 357.5,286.5 C 358.833,287.167 358.833,287.167 357.5,286.5 Z"/></g>
<g><path style="opacity:1" fill="#88c6e3" d="M 603.5,281.5 C 604.833,281.5 606.167,281.5 607.5,281.5C 598.231,284.56 588.897,287.727 579.5,291C 574.46,291.678 569.46,292.511 564.5,293.5C 576.793,287.516 589.793,283.516 603.5,281.5 Z"/></g>
<g><path style="opacity:0.376" fill="#a9b1b4" d="M 411.5,284.5 C 402.763,287.867 393.597,289.201 384,288.5C 379.167,288.333 374.333,288.167 369.5,288C 365.91,287.689 362.577,286.856 359.5,285.5C 367.458,286.557 375.458,287.224 383.5,287.5C 392.927,287.248 402.261,286.248 411.5,284.5 Z"/></g>
<g><path style="opacity:0.004" fill="#fefffe" d="M 706.5,289.5 C 706.897,288.475 707.563,288.308 708.5,289C 707.906,289.464 707.239,289.631 706.5,289.5 Z"/></g>
<g><path style="opacity:1" fill="#7795ac" d="M 241.5,280.5 C 237.558,286.688 232.892,292.355 227.5,297.5C 226.876,297.083 226.543,296.416 226.5,295.5C 227.091,293.734 227.924,292.067 229,290.5C 232.256,288.913 234.423,286.413 235.5,283C 237.811,282.764 239.811,281.931 241.5,280.5 Z"/></g>
<g><path style="opacity:0.957" fill="#8aa4b9" d="M 260.5,297.5 C 267.197,297.344 272.197,300.01 275.5,305.5C 270.629,302.444 265.629,299.777 260.5,297.5 Z"/></g>
<g><path style="opacity:0.086" fill="#e3f2fb" d="M 275.5,305.5 C 277.033,307.634 277.7,310.134 277.5,313C 277.333,314.833 277.167,316.667 277,318.5C 276.8,320.32 275.966,321.653 274.5,322.5C 276.672,316.95 277.005,311.283 275.5,305.5 Z"/></g>
<g><path style="opacity:0.616" fill="#acc3d2" d="M 182.5,306.5 C 181.239,311.842 181.239,317.175 182.5,322.5C 178.5,317.167 178.5,311.833 182.5,306.5 Z"/></g>
<g><path style="opacity:1" fill="#95cce5" d="M 696.5,288.5 C 700.027,289.26 703.36,290.594 706.5,292.5C 707.614,293.723 707.781,295.056 707,296.5C 697.202,304.629 687.702,313.129 678.5,322C 670.815,322.353 663.148,322.853 655.5,323.5C 656.949,321.836 658.949,321.002 661.5,321C 667.533,320.698 673.533,320.198 679.5,319.5C 679.286,317.856 679.62,316.356 680.5,315C 682.591,313.274 684.924,312.107 687.5,311.5C 687.5,310.5 687.5,309.5 687.5,308.5C 688.5,308.5 689.5,308.5 690.5,308.5C 690.5,307.5 690.5,306.5 690.5,305.5C 693.5,305.167 695.167,303.5 695.5,300.5C 696.833,300.5 698.167,300.5 699.5,300.5C 700.363,296.838 699.03,294.672 695.5,294C 696.333,293.833 697.167,293.667 698,293.5C 699.887,293.969 701.387,294.969 702.5,296.5C 702.833,295.833 703.167,295.167 703.5,294.5C 701.207,292.501 698.873,290.501 696.5,288.5 Z"/></g>
<g><path style="opacity:1" fill="#89c8e2" d="M 549.5,301.5 C 548.766,302.708 548.433,304.041 548.5,305.5C 552.206,307.356 555.54,309.856 558.5,313C 562.305,312.974 564.305,314.808 564.5,318.5C 565.978,318.238 567.311,318.571 568.5,319.5C 571.638,322.491 575.305,324.324 579.5,325C 582.589,328.004 585.922,330.504 589.5,332.5C 572.284,326.442 557.284,316.942 544.5,304C 546.078,302.906 547.745,302.072 549.5,301.5 Z"/></g>
<g><path style="opacity:0.024" fill="#dae5ed" d="M 182.5,322.5 C 184.167,323.5 185.5,324.833 186.5,326.5C 184.167,326.167 182.833,324.833 182.5,322.5 Z"/></g>
<g><path style="opacity:0.063" fill="#c7dbed" d="M 272.5,324.5 C 272.027,325.906 271.027,326.573 269.5,326.5C 269.973,325.094 270.973,324.427 272.5,324.5 Z"/></g>
<g><path style="opacity:0.279" fill="#bfd7eb" d="M 186.5,326.5 C 188.927,326.523 191.26,327.023 193.5,328C 216.833,328.667 240.167,328.667 263.5,328C 265.436,327.187 267.436,326.687 269.5,326.5C 268.158,327.793 266.491,328.626 264.5,329C 240.167,329.667 215.833,329.667 191.5,329C 189.509,328.626 187.842,327.793 186.5,326.5 Z"/></g>
<g><path style="opacity:0.275" fill="#c7ebf8" d="M 652.5,323.5 C 641.81,326.059 631.143,329.059 620.5,332.5C 630.469,327.338 641.136,324.338 652.5,323.5 Z"/></g>
<g><path style="opacity:0.953" fill="#a6d5e9" d="M 589.5,332.5 C 592.522,332.804 595.522,333.304 598.5,334C 600.71,335.739 603.21,336.906 606,337.5C 610.284,334.275 615.118,332.609 620.5,332.5C 616.135,335.011 611.468,337.011 606.5,338.5C 600.455,337.265 594.788,335.265 589.5,332.5 Z"/></g>
</svg>
