<?xml version="1.0" standalone="no"?>
<!DOCTYPE svg PUBLIC "-//W3C//DTD SVG 20010904//EN"
 "http://www.w3.org/TR/2001/REC-SVG-20010904/DTD/svg10.dtd">
<svg version="1.0" xmlns="http://www.w3.org/2000/svg"
 width="1458.000000pt" height="1458.000000pt" viewBox="0 0 1458.000000 1458.000000"
 preserveAspectRatio="xMidYMid meet">
<metadata>
Created by potrace 1.14, written by Peter Selinger 2001-2017
</metadata>
<g transform="translate(0.000000,1458.000000) scale(0.100000,-0.100000)"
fill="#000000" stroke="none">
<path d="M12400 10587 c-14 -23 -30 -56 -37 -74 -6 -17 -27 -55 -45 -85 -19
-29 -34 -56 -34 -59 1 -4 -6 -15 -15 -25 -22 -26 -149 -242 -149 -254 0 -6 -3
-10 -8 -10 -4 0 -13 -15 -21 -32 -8 -18 -19 -40 -26 -48 -7 -8 -27 -44 -46
-80 -18 -36 -36 -67 -39 -70 -3 -3 -24 -41 -47 -85 -37 -72 -48 -106 -44 -141
1 -12 79 -13 97 -1 6 3 22 8 37 11 57 10 414 204 437 237 3 4 28 24 56 45 89
67 185 162 193 192 16 53 6 100 -28 140 -17 20 -40 57 -52 82 -11 25 -25 52
-30 60 -5 8 -15 26 -21 40 -26 53 -129 200 -141 200 -6 0 -23 -19 -37 -43z"/>
<path d="M12766 9983 c-11 -14 -31 -36 -43 -50 -13 -13 -23 -27 -24 -31 0 -4
-5 -6 -10 -4 -5 1 -10 -2 -10 -8 -1 -5 -2 -14 -3 -19 0 -5 -5 -13 -10 -18 -5
-5 -6 -3 -2 5 4 6 4 12 0 12 -12 0 -64 -52 -64 -64 0 -6 12 3 26 19 l26 30
-22 -32 c-11 -18 -27 -30 -34 -27 -7 3 -19 -3 -27 -13 -13 -16 -12 -17 4 -4
11 8 17 9 17 2 0 -6 -12 -14 -26 -17 -29 -8 -77 -51 -64 -59 4 -3 17 7 28 21
15 21 21 24 27 13 5 -8 5 -11 0 -7 -4 4 -16 -4 -27 -18 -11 -13 -27 -23 -36
-22 -9 2 -17 -2 -17 -9 0 -6 -4 -15 -9 -20 -5 -5 -6 -3 -2 5 4 6 2 12 -3 12
-10 0 -14 -13 -8 -26 2 -6 -33 -28 -48 -29 -5 -1 -9 -6 -7 -13 1 -7 -8 -12
-20 -12 -12 0 -19 -3 -15 -6 24 -24 -446 -289 -530 -299 -68 -8 -111 -19 -161
-41 -29 -13 -44 -38 -125 -202 -51 -103 -94 -189 -97 -192 -3 -3 -39 -74 -80
-157 -41 -84 -78 -153 -82 -153 -5 0 -8 -7 -8 -15 0 -9 -11 -33 -24 -54 -14
-21 -23 -41 -20 -43 2 -3 -2 -11 -11 -18 -8 -7 -15 -21 -15 -31 0 -11 -3 -19
-8 -19 -4 0 -20 -27 -36 -60 -24 -52 -26 -65 -17 -88 12 -30 40 -51 75 -58 11
-2 46 -17 78 -34 51 -27 117 -55 158 -65 74 -20 161 -36 193 -36 9 0 15 -4 13
-8 -3 -4 4 -8 15 -8 11 -1 17 2 15 6 -3 4 2 8 10 8 8 0 13 -5 11 -11 -3 -6 6
-12 19 -12 16 -1 21 2 17 10 -4 6 1 4 11 -4 10 -8 39 -16 65 -17 25 -1 56 -4
69 -7 13 -3 20 -1 17 5 -4 5 -1 9 4 9 6 0 11 -4 11 -8 0 -4 18 -8 40 -8 22 0
40 4 40 8 0 5 -4 7 -9 4 -5 -3 -11 1 -15 9 -4 12 2 11 30 -4 26 -14 43 -17 69
-11 19 4 35 5 35 2 0 -3 10 3 22 14 12 10 19 14 15 8 -8 -14 67 -11 85 3 7 6
21 9 31 8 9 -2 17 0 17 3 0 4 12 8 28 8 28 1 85 11 114 20 9 3 26 7 39 9 12 2
47 12 78 21 31 10 62 18 69 20 31 6 228 88 245 102 9 8 17 12 17 7 0 -4 6 -3
13 3 17 14 79 49 175 99 143 74 310 175 358 218 13 11 60 46 77 57 13 8 16 99
4 116 -5 6 -6 12 -3 12 4 0 -1 12 -12 28 -10 15 -31 62 -46 105 -31 92 -69
175 -125 272 -22 39 -53 95 -69 125 -16 30 -44 80 -62 110 -18 30 -65 114
-105 185 -40 72 -81 146 -92 165 -11 19 -37 66 -59 105 -21 38 -44 79 -51 90
-6 11 -18 34 -26 51 -26 55 -60 65 -91 27z m-962 -1974 c-3 -5 -10 -7 -15 -3
-5 3 -7 10 -3 15 3 5 10 7 15 3 5 -3 7 -10 3 -15z m86 4 c0 -3 -6 -3 -12 0 -7
2 -21 0 -30 -4 -11 -6 -19 -5 -24 3 -4 6 -3 8 2 5 6 -3 16 -2 24 3 13 8 40 3
40 -7z m77 -3 c10 -13 8 -16 -6 -16 -13 0 -17 6 -13 19 2 10 5 16 6 15 1 -2 7
-10 13 -18z m87 -1 c6 1 9 -8 4 -10 -12 -3 -37 15 -32 23 4 6 9 6 14 -2 4 -6
10 -11 14 -11z m52 -6 c-4 -4 -12 -1 -19 7 -9 10 -9 11 1 6 7 -4 12 -2 13 6 0
11 2 11 6 0 3 -7 2 -16 -1 -19z m119 18 c-9 -8 -36 -10 -30 -2 2 4 11 8 20 8
8 0 13 -3 10 -6z"/>
<path d="M12410 9639 c0 -5 5 -7 10 -4 6 3 10 8 10 11 0 2 -4 4 -10 4 -5 0
-10 -5 -10 -11z"/>
<path d="M7598 9015 c-2 -1 -52 -6 -113 -10 -60 -3 -118 -7 -127 -8 -10 -1
-18 -5 -18 -10 0 -4 -8 -4 -17 1 -12 7 -21 4 -36 -12 -10 -11 -16 -16 -13 -9
4 6 2 14 -4 18 -5 3 -10 2 -10 -4 0 -6 -13 -9 -30 -7 -28 3 -42 -8 -19 -16 6
-2 -8 -3 -31 -3 -24 0 -45 -6 -49 -14 -5 -7 -14 -10 -20 -7 -6 4 -11 2 -11 -5
0 -7 -3 -10 -6 -6 -3 3 -23 -1 -44 -8 -21 -7 -41 -11 -44 -8 -3 4 -6 1 -6 -6
0 -7 -4 -9 -10 -6 -5 3 -10 1 -10 -6 0 -7 -3 -10 -6 -6 -4 3 -21 -1 -38 -10
-17 -10 -35 -16 -40 -14 -5 1 -3 -6 5 -15 11 -14 11 -16 1 -10 -9 5 -34 -2
-65 -19 -68 -36 -171 -97 -177 -105 -3 -3 -25 -20 -50 -38 -25 -18 -87 -75
-139 -127 -52 -52 -98 -95 -102 -95 -5 0 -9 -4 -9 -8 0 -5 -14 -33 -31 -63
-16 -30 -27 -43 -23 -29 3 14 5 23 3 20 -2 -3 -13 -16 -24 -29 -11 -14 -14
-21 -7 -17 6 4 12 2 12 -3 0 -6 -4 -11 -9 -11 -5 0 -19 -15 -31 -32 -21 -32
-21 -32 -1 -9 12 13 21 19 21 13 0 -6 -10 -19 -22 -29 -13 -10 -24 -25 -26
-33 -2 -8 -14 -24 -27 -35 -14 -12 -25 -28 -25 -37 0 -8 -7 -21 -15 -28 -8 -7
-12 -16 -9 -21 3 -5 -2 -9 -11 -9 -11 0 -15 -5 -11 -16 3 -8 2 -12 -4 -9 -6 3
-10 4 -10 1 0 -3 -9 -28 -20 -56 -11 -28 -15 -48 -9 -45 14 9 -12 -36 -31 -53
-8 -7 -9 -11 -2 -7 6 3 12 1 12 -4 0 -6 -4 -11 -10 -11 -5 0 -10 -9 -10 -20 0
-11 -6 -20 -12 -20 -8 0 -4 -8 7 -17 16 -12 16 -14 3 -10 -10 3 -20 2 -23 -3
-4 -6 -1 -10 4 -10 6 0 11 -5 11 -11 0 -5 -5 -7 -12 -3 -8 5 -9 2 -5 -9 4 -12
1 -17 -11 -18 -10 0 -12 -3 -5 -6 9 -3 10 -10 4 -21 -10 -19 -11 -23 -11 -58
0 -17 -4 -23 -12 -18 -10 6 -10 4 0 -8 9 -11 10 -23 2 -42 -5 -14 -12 -26 -15
-26 -4 0 -3 6 1 13 4 6 3 8 -2 4 -8 -8 -11 -24 -15 -110 -1 -26 -6 -50 -11
-53 -4 -3 -6 -9 -3 -13 2 -5 0 -23 -6 -42 -19 -63 -20 -73 -24 -212 -3 -76 -7
-142 -10 -148 -4 -5 -1 -9 5 -9 6 0 8 -5 4 -11 -10 -17 -11 -53 -1 -60 5 -4 4
-16 -3 -29 -10 -18 -9 -21 1 -15 8 6 11 4 7 -6 -3 -8 -9 -23 -13 -34 -6 -16
-5 -17 4 -5 8 12 11 6 12 -25 0 -22 3 -60 5 -85 9 -88 9 -95 -5 -92 -7 1 -10
-2 -6 -8 3 -6 10 -8 15 -5 4 3 10 -10 13 -28 2 -17 0 -35 -5 -38 -6 -4 -5 -8
3 -11 18 -6 19 -51 0 -66 -14 -11 -14 -11 2 -6 13 5 18 -1 23 -25 7 -33 4 -48
-9 -43 -5 1 -6 -2 -2 -8 3 -6 11 -8 16 -5 5 4 9 2 9 -4 0 -5 -6 -12 -12 -14
-8 -3 -6 -6 5 -6 9 -1 17 -6 17 -12 0 -5 -6 -7 -12 -3 -10 6 -10 5 -1 -8 7 -8
10 -18 6 -21 -3 -4 -1 -7 5 -7 6 0 9 -7 6 -15 -4 -8 -1 -15 6 -15 6 0 8 -4 5
-10 -3 -5 -1 -19 5 -30 8 -15 8 -20 -2 -20 -10 0 -10 -2 0 -9 7 -4 14 -24 15
-43 1 -20 6 -33 11 -30 5 3 7 -5 4 -16 -4 -14 -2 -20 5 -15 6 4 8 -2 5 -15 -4
-12 -2 -20 3 -16 8 4 12 -17 8 -42 0 -4 3 -10 8 -13 9 -7 43 -94 50 -131 3
-14 11 -32 17 -40 7 -8 25 -41 41 -73 17 -32 37 -66 46 -76 9 -10 20 -27 24
-40 3 -12 16 -32 28 -44 12 -12 39 -47 59 -77 49 -72 94 -121 102 -113 3 3 6
1 6 -6 0 -7 6 -11 14 -8 17 7 28 -16 20 -40 -5 -15 -4 -16 5 -3 9 13 16 10 41
-19 16 -18 30 -37 30 -41 0 -4 12 -12 26 -18 14 -7 22 -17 19 -22 -3 -6 1 -10
9 -10 9 0 16 -4 16 -10 0 -5 8 -10 18 -10 10 0 24 -9 32 -20 11 -15 17 -17 29
-7 10 8 12 8 8 1 -8 -14 18 -38 32 -29 6 3 8 0 5 -8 -3 -10 5 -18 25 -25 16
-6 31 -8 34 -6 3 3 4 -3 4 -13 -2 -12 4 -17 16 -15 9 2 17 -1 17 -6 0 -11 59
-41 92 -47 12 -3 25 -10 29 -16 4 -7 16 -9 28 -6 12 3 24 0 28 -5 4 -7 1 -8
-8 -3 -12 8 -12 6 0 -8 8 -10 16 -15 19 -13 2 3 13 1 23 -4 12 -7 20 -7 24 0
8 13 25 13 25 -1 0 -5 -5 -7 -12 -3 -7 4 -8 3 -4 -5 6 -9 11 -9 22 0 12 10 13
9 8 -6 -6 -15 -4 -16 11 -7 15 8 22 6 33 -6 9 -12 11 -12 6 -2 -6 12 -5 13 7
3 8 -7 35 -15 59 -19 25 -4 51 -12 59 -18 12 -9 13 -8 6 4 -5 9 0 7 14 -4 22
-20 22 -20 15 0 -7 18 -6 18 12 3 10 -9 26 -19 34 -23 9 -5 8 -2 -2 7 -24 19
-23 30 2 17 11 -6 31 -8 44 -6 19 3 23 1 19 -11 -5 -12 -3 -14 8 -7 19 12 41
15 59 7 24 -10 40 -12 36 -4 -3 3 11 6 30 6 23 0 34 -5 35 -15 0 -10 3 -8 9 5
5 11 9 15 9 9 1 -17 29 -25 37 -12 5 7 2 8 -6 3 -8 -5 -11 -4 -6 3 4 6 13 9
21 6 8 -4 12 -11 8 -18 -4 -7 -2 -7 8 1 12 10 18 10 29 0 9 -9 11 -9 6 0 -4 7
0 11 11 11 10 -1 31 2 47 6 26 6 28 5 17 -8 -7 -8 -18 -13 -26 -10 -7 3 -15 1
-19 -4 -6 -10 24 -9 41 1 6 4 19 4 30 1 15 -5 15 -4 3 5 -8 6 -13 11 -10 12
51 9 54 9 40 -1 -9 -6 -10 -10 -3 -10 6 0 15 4 18 10 3 6 11 10 17 10 6 0 5
-7 -3 -17 -12 -16 -12 -17 2 -6 9 7 19 10 22 6 4 -3 9 1 13 10 5 13 10 14 25
6 13 -6 19 -6 19 1 0 5 4 10 10 10 5 0 6 -8 3 -17 -5 -12 0 -10 16 6 13 13 26
20 29 16 4 -3 0 -11 -8 -16 -12 -9 -12 -10 3 -5 10 3 21 6 23 6 3 0 2 6 -2 13
-5 7 0 6 11 -3 11 -9 16 -10 11 -2 -4 7 -1 12 9 12 10 0 13 -5 9 -12 -4 -7 2
-5 14 5 11 11 26 16 32 12 6 -4 17 -1 25 5 12 10 15 10 15 -1 0 -12 2 -12 9 0
5 8 16 11 25 8 9 -4 16 -3 16 2 0 5 16 12 35 15 19 4 35 12 35 18 0 6 9 8 20
5 11 -3 23 0 27 5 4 7 1 8 -7 3 -9 -5 -11 -4 -6 3 5 8 13 9 25 2 13 -6 24 -5
37 6 18 14 18 15 -3 5 -14 -7 -24 -8 -28 -1 -3 5 0 10 8 10 8 0 27 7 43 14 15
8 31 13 36 10 5 -3 14 -1 21 4 12 9 65 25 69 20 3 -3 68 41 78 52 3 3 22 14
43 25 22 11 49 30 62 41 13 12 28 24 33 25 11 4 150 129 192 172 15 15 30 40
33 56 4 19 16 32 37 41 22 9 33 22 37 42 3 16 20 41 38 56 40 34 78 87 95 132
8 19 20 39 27 43 13 8 33 48 51 102 6 17 24 68 41 114 17 46 31 93 31 103 0
11 4 17 9 14 5 -4 7 4 3 16 -3 11 -1 19 4 16 5 -4 10 4 10 15 4 45 16 92 27
99 9 6 8 8 -1 8 -8 0 -10 5 -5 13 4 6 8 14 8 17 1 3 5 25 10 50 5 25 8 48 7
53 -1 4 2 7 7 7 5 0 7 10 3 22 -4 16 -2 19 9 13 11 -7 12 -6 2 7 -7 8 -10 18
-6 22 4 4 8 17 9 29 11 120 17 158 28 176 6 10 5 12 -2 7 -17 -10 -15 6 3 32
15 20 15 21 -2 15 -15 -6 -16 -4 -6 9 7 8 10 18 6 21 -3 4 0 13 7 22 8 9 8 15
2 15 -11 0 -9 31 3 50 3 6 0 10 -7 10 -9 0 -9 3 2 10 13 9 13 10 0 10 -13 0
-13 1 0 10 12 8 13 11 1 19 -11 7 -11 9 0 14 12 5 11 8 -1 17 -12 10 -10 11
10 6 l25 -5 -24 20 c-13 10 -18 19 -12 19 15 0 14 53 -1 69 -10 11 -10 13 0 7
9 -5 12 3 12 31 0 28 -3 34 -10 23 -14 -22 -12 -3 3 21 10 17 10 23 0 26 -7 3
-13 9 -13 14 0 6 5 7 10 4 6 -4 10 5 10 19 0 14 -4 26 -10 26 -5 0 -10 5 -10
11 0 5 4 7 10 4 6 -4 9 5 8 19 -1 15 -6 26 -10 26 -4 0 -8 5 -8 11 0 5 4 8 8
5 5 -3 7 9 6 27 -1 18 -3 32 -4 32 -1 0 -4 14 -6 30 -5 34 -23 112 -32 135 -3
8 -7 26 -9 40 -2 14 -6 32 -10 40 -3 8 -7 29 -9 45 -2 17 -7 37 -11 45 -3 8
-7 17 -7 20 -9 41 -31 102 -37 106 -5 3 -9 14 -9 25 0 10 -5 19 -11 19 -5 0
-7 5 -4 10 3 6 1 10 -4 10 -6 0 -10 3 -9 8 6 21 -39 127 -64 150 -16 16 -28
37 -28 52 0 27 -24 69 -47 83 -7 5 -10 13 -7 19 4 7 2 8 -5 4 -6 -4 -14 0 -18
11 -3 10 -13 27 -22 38 -15 18 -15 19 1 7 15 -12 16 -11 5 12 -7 14 -20 29
-29 32 -10 3 -18 11 -18 19 0 14 -79 102 -186 209 -76 77 -219 188 -229 178
-3 -4 -5 -1 -3 7 2 7 -5 15 -15 16 -10 2 -26 10 -35 18 -10 7 -32 19 -49 27
-18 7 -33 15 -33 19 0 4 -10 7 -22 8 -11 1 -24 6 -27 11 -3 5 -27 15 -53 23
-27 7 -48 17 -48 21 0 4 -3 7 -7 7 -30 -5 -45 2 -38 19 5 13 3 14 -5 6 -15
-15 -52 -6 -43 10 4 6 0 5 -9 -2 -11 -9 -18 -10 -23 -2 -3 5 -15 10 -26 10
-11 0 -17 4 -14 10 3 6 -1 7 -9 4 -9 -3 -24 -3 -33 2 -10 4 -27 9 -38 10 -26
3 -115 21 -125 24 -3 1 -13 1 -24 0 -11 -1 -15 3 -12 9 5 7 1 8 -9 5 -8 -4
-23 0 -32 7 -12 10 -15 10 -9 2 7 -13 -15 -19 -27 -7 -3 4 -50 8 -104 11 -54
2 -113 5 -130 7 -18 2 -34 2 -35 1z m1477 -704 c3 -5 2 -12 -3 -15 -5 -3 -9 1
-9 9 0 17 3 19 12 6z m-1160 -196 c50 -16 94 -32 100 -37 5 -4 17 -8 27 -8 9
0 27 -13 40 -30 12 -16 28 -30 36 -30 8 0 51 -37 96 -82 74 -76 87 -96 155
-233 40 -82 77 -157 81 -166 14 -28 33 -102 44 -175 27 -175 29 -197 30 -359
0 -146 -6 -250 -19 -330 -12 -72 -15 -91 -20 -112 -8 -36 -14 -65 -21 -98 -3
-16 -17 -49 -30 -72 -13 -23 -24 -49 -24 -57 0 -19 -17 -52 -42 -81 -9 -11
-24 -37 -33 -58 -8 -20 -19 -37 -24 -37 -5 0 -13 -12 -19 -27 -12 -35 -69 -92
-173 -174 -78 -62 -137 -90 -216 -104 -21 -4 -49 -9 -63 -12 -57 -11 -268 -9
-330 3 -142 30 -247 71 -276 109 -10 14 -26 25 -34 25 -19 0 -102 85 -124 128
-9 17 -21 32 -27 32 -5 0 -15 14 -20 30 -6 17 -15 30 -20 30 -5 0 -21 27 -36
60 -14 33 -30 60 -35 60 -4 0 -8 9 -8 19 0 11 -4 22 -9 26 -5 3 -13 20 -16 38
-4 17 -18 64 -30 102 -13 39 -26 99 -29 135 -6 78 -15 142 -26 192 -14 67 7
468 26 500 5 8 12 35 19 78 10 56 35 138 59 195 14 33 26 68 26 78 0 9 5 17
10 17 6 0 10 6 10 13 0 7 9 20 20 30 11 9 20 24 20 32 0 8 4 15 9 15 5 0 16
16 25 35 9 19 21 35 25 35 5 0 13 13 19 28 5 15 24 39 41 52 17 14 31 31 31
38 0 6 8 12 18 12 10 0 32 13 48 30 16 16 35 30 42 30 6 0 12 3 12 8 0 14 163
68 235 78 11 1 20 3 20 4 0 1 27 4 60 7 33 2 61 6 62 7 2 1 40 1 86 0 58 -1
109 -10 172 -29z m1513 -750 c-3 -3 -9 2 -12 12 -6 14 -5 15 5 6 7 -7 10 -15
7 -18z m-2368 -2321 c0 -2 -8 0 -19 5 -10 6 -22 7 -26 3 -5 -4 -5 -1 -1 6 5 9
12 9 27 2 10 -6 19 -13 19 -16z"/>
<path d="M483 8924 c-4 -12 -8 -13 -14 -3 -6 10 -11 10 -23 0 -13 -11 -16 -11
-16 0 0 10 -2 11 -8 2 -4 -7 -23 -15 -41 -18 -36 -6 -72 -39 -124 -114 -18
-25 -35 -47 -39 -49 -5 -2 -8 -10 -8 -17 0 -8 -7 -21 -16 -29 -8 -9 -12 -16
-8 -16 3 0 2 -6 -3 -12 -6 -7 -20 -42 -32 -76 -24 -70 -22 103 -22 -1972 0
-102 0 -192 0 -200 0 -8 2 -222 5 -475 4 -466 6 -517 33 -615 9 -30 16 -65 17
-77 0 -13 4 -23 8 -23 3 0 9 -13 13 -30 4 -16 13 -30 21 -30 8 0 14 -3 15 -7
3 -30 11 -46 40 -77 18 -21 39 -34 46 -31 8 2 11 0 8 -5 -3 -5 17 -12 45 -16
27 -4 50 -10 50 -15 0 -5 5 -9 11 -9 5 0 8 4 5 8 -3 5 1 9 9 9 8 0 12 -4 9 -9
-6 -9 -5 -9 49 -12 20 -1 37 2 37 7 0 5 6 4 13 -2 8 -6 16 -8 20 -5 3 3 29 8
59 10 77 7 87 9 100 22 7 7 16 12 21 12 14 0 97 92 97 108 0 6 4 12 8 12 8 0
51 90 58 123 2 9 6 27 9 40 13 56 15 84 17 245 2 107 7 172 13 172 6 0 6 3 -1
8 -14 9 -14 43 0 61 8 11 8 13 0 8 -7 -4 -12 2 -11 18 0 16 4 22 11 18 6 -4 5
1 -3 11 -13 15 -13 19 0 27 9 5 10 9 2 9 -14 0 -13 42 2 52 6 5 6 8 -2 8 -7 0
-13 7 -13 16 0 8 4 13 8 10 5 -3 9 1 9 9 0 8 -4 12 -9 9 -4 -3 -8 2 -8 11 0 9
5 13 11 10 6 -4 5 3 -3 14 -11 18 -11 23 2 31 10 6 11 10 3 10 -7 0 -13 7 -13
16 0 8 4 13 8 10 5 -3 9 1 9 9 0 8 -4 12 -9 9 -4 -3 -8 2 -8 11 0 9 4 14 8 11
5 -3 9 1 9 9 0 8 -4 12 -9 9 -4 -3 -8 2 -8 11 0 9 4 14 8 11 5 -3 9 1 9 9 0 8
-4 12 -9 9 -4 -3 -8 2 -8 11 0 9 4 14 8 11 4 -2 9 5 9 17 2 17 0 19 -7 7 -8
-13 -10 -13 -10 2 0 9 6 19 12 21 10 4 10 6 1 6 -7 1 -13 6 -13 12 0 5 6 7 13
3 10 -6 10 -4 0 7 -15 15 -18 33 -5 25 5 -3 9 1 9 9 0 8 -4 12 -9 9 -4 -3 -8
-1 -8 5 0 5 6 12 13 14 9 4 9 6 0 6 -7 1 -13 6 -13 12 0 5 6 7 13 3 10 -6 10
-4 0 7 -15 15 -18 33 -5 25 5 -3 9 1 9 9 0 8 -4 12 -9 9 -4 -3 -8 -1 -8 5 0 5
6 12 13 14 10 4 10 6 0 6 -7 1 -13 6 -13 12 0 5 6 7 13 3 10 -6 10 -4 0 7 -17
17 -17 32 0 23 10 -6 10 -4 0 7 -17 17 -17 32 0 23 8 -5 7 -2 -2 9 -18 23 -8
32 19 17 15 -8 20 -8 16 -1 -9 14 0 14 26 0 15 -8 19 -8 14 0 -8 12 6 15 18 4
3 -4 15 -7 25 -8 13 -1 17 3 13 14 -5 14 -4 14 12 2 19 -16 58 -23 50 -9 -7
11 3 10 28 -3 15 -8 19 -8 14 0 -8 12 6 15 18 4 3 -4 15 -7 25 -8 13 -1 17 3
13 13 -4 11 -2 13 9 6 8 -4 25 -10 39 -11 14 -2 30 -4 35 -4 17 -2 40 6 47 16
4 6 8 2 8 -7 0 -10 5 -18 11 -18 5 0 7 5 4 10 -3 6 -2 10 4 10 5 0 12 -6 14
-12 4 -10 6 -10 6 0 1 6 6 12 12 12 5 0 7 -6 3 -12 -6 -10 -4 -10 7 0 16 14
33 16 24 2 -10 -17 7 -11 22 8 14 16 14 16 8 -3 -5 -16 -4 -18 6 -7 15 14 33
16 24 2 -3 -5 -1 -10 4 -10 6 0 11 5 11 10 0 6 5 10 11 10 5 0 7 -6 3 -12 -6
-10 -4 -10 7 0 16 14 33 16 24 2 -3 -6 1 -7 9 -4 9 3 16 10 16 16 0 5 7 2 16
-6 8 -9 20 -14 25 -11 17 11 49 14 49 4 0 -5 5 -9 11 -9 5 0 8 4 5 9 -7 11 14
20 32 14 6 -3 9 -10 6 -16 -5 -8 -2 -8 7 1 16 14 33 16 24 2 -3 -5 -1 -10 4
-10 6 0 11 5 11 10 0 6 5 10 11 10 5 0 7 -6 3 -12 -6 -10 -4 -10 7 0 16 14 33
16 24 2 -3 -5 -1 -10 4 -10 6 0 11 5 11 10 0 6 5 10 11 10 5 0 7 -6 3 -12 -6
-10 -4 -10 7 0 7 6 20 12 29 12 12 0 13 -2 1 -9 -10 -7 -7 -9 12 -8 14 1 23 5
20 10 -6 10 5 9 29 -4 15 -8 19 -8 14 0 -8 12 6 15 18 4 3 -4 15 -7 25 -8 13
-1 17 3 13 14 -5 14 -4 14 12 2 19 -16 58 -23 50 -9 -7 11 3 10 28 -3 15 -8
19 -8 14 0 -8 12 6 15 18 4 3 -4 15 -7 25 -8 13 -1 17 3 13 14 -4 12 0 11 18
-4 13 -11 20 -14 16 -7 -4 7 -1 12 9 12 10 0 14 -5 9 -12 -6 -10 -4 -10 7 0
16 14 33 16 24 2 -3 -5 -1 -10 4 -10 6 0 11 5 11 10 0 6 5 10 11 10 5 0 7 -6
3 -12 -4 -7 3 -4 16 7 20 17 23 18 17 3 -4 -10 -2 -18 3 -18 6 0 10 5 10 10 0
6 5 10 11 10 5 0 7 -6 3 -12 -6 -10 -4 -10 7 0 16 14 33 16 24 2 -3 -5 -1 -10
4 -10 6 0 11 5 11 12 0 8 3 8 9 3 16 -16 13 -225 -3 -225 -5 0 -3 -7 4 -15 10
-12 10 -15 -1 -15 -11 0 -11 -2 1 -10 13 -9 13 -11 0 -20 -13 -9 -13 -10 0
-10 13 0 13 -1 0 -10 -13 -9 -13 -10 0 -10 13 0 13 -1 0 -10 -13 -9 -13 -10 0
-10 9 0 11 -3 5 -8 -13 -8 -13 -22 -1 -41 6 -10 5 -12 -2 -7 -7 4 -12 2 -12
-3 0 -6 6 -11 13 -11 9 0 9 -2 -1 -9 -8 -4 -14 -12 -14 -16 0 -4 6 -12 14 -16
10 -7 10 -9 1 -9 -17 0 -17 -27 0 -33 9 -4 9 -6 0 -6 -7 -1 -13 -8 -13 -16 0
-14 12 -20 33 -16 5 1 6 -3 2 -8 -3 -6 -12 -8 -20 -4 -18 6 -19 -8 -2 -26 7
-8 7 -11 1 -8 -15 9 -15 -46 0 -55 8 -6 7 -8 -1 -8 -7 0 -13 -7 -13 -15 0 -8
6 -15 13 -15 7 0 8 -3 2 -8 -15 -10 -20 -56 -5 -47 7 4 7 -1 -2 -14 -11 -18
-11 -23 2 -31 8 -5 10 -10 5 -10 -6 0 -11 -11 -11 -25 0 -14 4 -25 8 -25 5 0
4 -9 -2 -19 -7 -14 -6 -21 3 -24 6 -3 7 -6 2 -6 -6 -1 -9 -18 -7 -41 3 -27 8
-38 16 -33 8 5 8 3 0 -8 -6 -8 -10 -30 -8 -49 1 -19 3 -56 5 -82 1 -26 6 -45
11 -42 4 3 8 -3 9 -13 0 -10 2 -25 4 -33 2 -8 7 -28 10 -44 3 -16 8 -33 11
-38 3 -5 8 -21 10 -35 3 -15 23 -65 45 -110 32 -67 44 -83 62 -83 18 0 19 -2
7 -10 -8 -5 -10 -10 -5 -11 31 -2 50 -9 53 -18 2 -5 10 -7 19 -4 10 4 14 2 10
-4 -4 -6 1 -14 11 -18 25 -10 68 -17 61 -10 -4 3 -17 8 -29 10 -12 2 -25 7
-29 10 -3 3 10 3 29 0 19 -3 38 -11 42 -18 4 -7 16 -13 27 -13 11 -1 18 3 15
7 -3 5 2 9 11 9 9 0 14 -4 11 -8 -2 -4 4 -8 14 -8 10 0 16 4 14 8 -3 4 2 8 11
8 9 0 13 -4 10 -10 -10 -17 7 -11 20 7 9 13 14 13 20 3 6 -9 4 -11 -5 -5 -8 5
-11 4 -6 -3 4 -6 13 -9 21 -6 8 4 12 10 9 15 -3 5 0 9 5 9 6 0 11 -4 11 -9 0
-5 7 -12 16 -15 14 -5 15 -4 5 8 -10 12 -9 13 8 9 13 -3 21 -1 21 6 0 7 4 10
9 7 11 -7 87 42 129 83 46 45 98 145 113 216 9 46 13 415 14 1571 2 1530 0
1638 -34 1729 -19 50 -65 135 -73 135 -4 0 -8 5 -8 11 0 5 5 7 10 4 16 -10 11
1 -7 16 -14 12 -16 12 -8 0 5 -10 4 -12 -3 -7 -7 4 -12 13 -12 20 0 16 -42 56
-59 56 -18 0 -41 26 -33 36 4 5 -1 2 -10 -5 -10 -7 -18 -9 -18 -3 0 5 -7 13
-16 16 -8 3 -12 2 -9 -4 8 -13 -34 -3 -53 12 -9 7 -13 8 -9 2 4 -7 -6 -10 -28
-10 -18 1 -31 4 -29 7 2 4 -3 10 -12 13 -8 3 -12 2 -9 -4 4 -6 -3 -9 -17 -6
-13 1 -35 0 -51 -5 -20 -6 -25 -5 -20 4 4 8 1 8 -9 -1 -13 -10 -17 -10 -21 0
-4 11 -6 10 -6 0 -1 -7 -5 -10 -11 -7 -5 3 -10 2 -10 -2 0 -5 -12 -10 -26 -11
-22 -2 -80 -32 -61 -32 4 0 -5 -14 -20 -30 -20 -23 -29 -27 -35 -18 -7 10 -8
9 -7 -2 1 -8 -17 -55 -40 -105 -24 -49 -48 -103 -55 -118 -7 -16 -12 -42 -10
-58 2 -18 0 -28 -6 -24 -6 3 -10 2 -10 -4 0 -5 4 -12 10 -16 5 -3 8 -19 7 -34
-1 -16 -5 -27 -8 -25 -4 2 -9 -5 -12 -16 -3 -11 0 -23 5 -27 6 -3 8 -1 4 5 -3
6 -3 13 2 16 9 5 8 -40 -1 -64 -12 -31 -14 -99 -3 -111 8 -9 8 -10 -3 -4 -9 5
-12 3 -9 -6 3 -8 1 -26 -3 -41 -8 -28 10 -55 26 -40 5 4 5 1 1 -6 -4 -7 -11
-10 -16 -7 -4 3 -11 -2 -14 -11 -4 -10 -2 -13 6 -8 7 5 8 3 2 -7 -13 -21 -13
-92 -1 -108 8 -10 8 -12 1 -8 -6 3 -11 0 -11 -8 0 -8 5 -11 11 -8 7 5 7 2 0
-8 -15 -19 -15 -71 0 -62 8 5 8 3 0 -8 -15 -20 -15 -62 -1 -71 9 -6 9 -8 0 -8
-7 0 -13 -7 -13 -16 0 -8 5 -12 11 -8 8 5 8 1 0 -14 -15 -28 -14 -45 2 -36 10
6 10 4 0 -7 -7 -7 -13 -17 -13 -22 0 -4 6 -5 13 -1 9 6 9 4 1 -7 -5 -8 -9 -39
-7 -69 2 -30 5 -87 7 -126 1 -39 6 -76 10 -82 3 -6 2 -13 -3 -17 -6 -3 -8 -12
-5 -20 6 -14 -19 -16 -32 -2 -4 4 -13 2 -21 -4 -7 -6 -13 -8 -13 -4 0 4 -8 1
-17 -6 -14 -12 -16 -12 -8 0 6 11 4 13 -7 8 -9 -3 -20 -1 -26 5 -6 6 -12 6
-16 -1 -4 -6 -12 -11 -17 -11 -6 0 -7 6 -3 13 6 9 4 9 -8 -1 -11 -9 -18 -10
-23 -2 -3 5 -12 10 -18 10 -7 0 -6 -4 3 -10 12 -8 10 -10 -8 -10 -16 0 -21 4
-16 13 6 9 4 9 -7 1 -14 -12 -29 -11 -64 1 l-20 8 20 -17 20 -16 -20 7 c-11 3
-23 11 -27 17 -5 7 -8 7 -8 -1 0 -7 -5 -13 -11 -13 -5 0 -7 6 -3 13 6 10 4 10
-7 0 -7 -7 -20 -13 -28 -13 -14 0 -14 1 -1 10 9 6 10 10 3 10 -7 0 -17 -8 -22
-17 -6 -10 -11 -13 -11 -7 0 6 -6 11 -12 11 -7 0 -22 4 -33 8 -14 5 -16 4 -7
-3 11 -7 10 -10 -5 -14 -22 -6 -45 1 -39 11 3 4 -1 8 -8 8 -8 0 -12 -7 -9 -16
3 -11 0 -10 -11 3 -9 11 -16 14 -16 8 0 -7 -5 -12 -11 -12 -5 0 -7 5 -3 11 3
6 -5 4 -18 -5 -22 -15 -27 -15 -38 -1 -11 13 -15 13 -41 -1 -27 -13 -29 -13
-30 3 0 11 -3 13 -6 6 -2 -7 -9 -13 -14 -13 -6 0 -7 5 -4 10 3 6 1 10 -4 10
-6 0 -11 -4 -11 -10 0 -5 -5 -10 -11 -10 -5 0 -7 6 -3 13 5 8 2 8 -9 -2 -9 -7
-17 -10 -17 -6 0 4 -8 1 -17 -6 -9 -8 -14 -9 -10 -3 9 15 -16 25 -33 14 -8 -5
-22 -4 -33 2 -14 7 -17 7 -13 -1 9 -14 0 -14 -24 -1 -16 9 -18 8 -13 -6 5 -14
2 -14 -23 2 -15 11 -25 13 -21 7 10 -16 2 -16 -23 -3 -17 9 -18 8 -13 -7 6
-16 5 -16 -10 -4 -9 7 -17 10 -17 7 0 -4 -9 -2 -19 4 -15 7 -23 6 -34 -4 -9
-9 -19 -11 -28 -5 -12 7 -12 9 0 9 8 0 11 3 8 6 -4 4 -12 3 -19 -3 -15 -11
-28 -11 -45 0 -6 4 -14 3 -18 -3 -4 -6 -11 -8 -16 -5 -5 4 -9 1 -9 -5 0 -7 -7
-5 -16 4 -11 12 -20 13 -34 6 -25 -13 -51 -13 -30 0 9 6 10 10 3 10 -6 0 -15
-4 -18 -10 -3 -5 -11 -10 -16 -10 -6 0 -8 4 -5 8 3 5 -1 9 -9 9 -8 0 -12 -4
-9 -9 7 -11 -3 -10 -28 3 -12 6 -18 7 -14 1 3 -5 -1 -12 -9 -16 -8 -3 -17 0
-21 6 -5 7 -2 8 6 3 9 -5 11 -4 6 4 -6 9 -11 9 -21 1 -10 -8 -14 -7 -18 2 -4
9 -6 10 -6 1 -1 -7 -8 -10 -16 -7 -8 4 -15 1 -15 -6 0 -6 -5 -8 -10 -5 -8 5
-7 12 2 23 10 12 10 14 1 8 -7 -4 -13 -3 -13 1 0 5 6 15 13 22 10 11 10 13 0
7 -7 -4 -13 -3 -13 3 0 5 6 12 13 14 9 4 8 6 -2 6 -11 1 -11 4 0 18 10 11 10
14 2 9 -7 -4 -13 -3 -13 3 0 5 6 12 13 14 9 4 9 6 0 6 -8 1 -13 14 -13 32 0
16 4 28 8 25 5 -3 9 1 9 9 0 8 -4 12 -9 9 -13 -8 -10 10 5 25 9 11 9 13 0 7
-7 -4 -13 -2 -13 3 0 6 6 11 13 11 8 0 7 4 -3 10 -13 9 -13 11 0 20 10 6 11
10 3 10 -7 0 -13 6 -13 14 0 8 6 17 13 19 10 4 10 6 0 6 -7 1 -13 6 -13 12 0
5 6 7 13 3 9 -6 9 -4 -1 8 -10 13 -10 17 0 21 10 4 10 6 1 6 -7 1 -13 6 -13
12 0 5 5 7 11 4 6 -4 5 3 -3 14 -11 18 -11 23 1 30 11 7 11 9 0 14 -12 4 -11
7 1 16 12 8 12 11 1 11 -11 0 -11 3 0 17 10 11 10 14 2 9 -7 -4 -13 -3 -13 3
0 5 6 12 13 14 10 4 10 6 0 6 -7 1 -13 8 -13 17 0 9 5 12 13 8 8 -5 8 -2 -2 9
-11 14 -11 17 0 17 11 0 11 2 -1 10 -13 9 -13 11 0 20 9 6 10 10 3 10 -14 0
-13 72 2 82 7 5 6 8 -1 8 -6 0 -11 11 -11 25 0 14 5 25 11 25 8 0 8 2 0 8 -6
4 -11 45 -11 102 -2 208 -6 293 -19 357 -17 80 -48 151 -68 159 -9 3 -16 13
-16 21 0 8 -5 11 -12 7 -6 -4 -8 -3 -5 4 9 13 -2 44 -13 37 -5 -3 -16 5 -24
17 -9 12 -16 18 -16 13 0 -6 -5 -2 -11 8 -9 15 -13 16 -27 5 -13 -11 -15 -11
-10 3 5 13 2 16 -14 11 -16 -4 -19 -2 -13 9 7 11 5 11 -10 -1 -15 -12 -17 -12
-10 -1 6 11 4 13 -8 8 -9 -3 -19 -2 -22 4 -4 5 -11 7 -16 4 -5 -4 -9 -1 -9 6
0 10 -3 10 -12 1 -17 -17 -28 -15 -28 6 0 9 -4 13 -8 7 -9 -13 -94 -17 -87 -4
4 5 4 9 0 9 -3 0 -8 -7 -12 -16z m1980 -3039 c-3 -9 -8 -14 -10 -11 -3 3 -2 9
2 15 9 16 15 13 8 -4z m2 -205 c3 -5 1 -10 -4 -10 -6 0 -11 5 -11 10 0 6 2 10
4 10 3 0 8 -4 11 -10z m-1935 -656 c0 -8 -19 -13 -24 -6 -3 5 1 9 9 9 8 0 15
-2 15 -3z m2280 -4 c0 -5 -4 -10 -10 -10 -5 0 -10 5 -10 10 0 6 5 10 10 10 6
0 10 -4 10 -10z"/>
<path d="M2908 8933 c7 -3 16 -2 19 1 4 3 -2 6 -13 5 -11 0 -14 -3 -6 -6z"/>
<path d="M2975 8920 c3 -5 8 -10 11 -10 2 0 4 5 4 10 0 6 -5 10 -11 10 -5 0
-7 -4 -4 -10z"/>
<path d="M2449 8488 c-5 -18 -6 -38 -1 -34 7 8 12 36 6 36 -2 0 -4 -1 -5 -2z"/>
<path d="M13604 8462 c-12 -2 -30 -12 -40 -23 -21 -21 -44 -44 -102 -98 -20
-19 -31 -31 -23 -26 10 6 12 4 7 -4 -5 -8 -12 -9 -20 -2 -8 7 -16 4 -26 -12
-8 -12 -13 -26 -12 -30 1 -5 -2 -6 -7 -3 -5 4 -11 1 -13 -4 -2 -6 -11 -12 -20
-13 -9 -2 -36 -20 -60 -40 -53 -47 -55 -48 -98 -69 -19 -10 -55 -30 -80 -44
-60 -36 -284 -150 -324 -165 -17 -6 -36 -11 -42 -10 -7 1 -25 -4 -40 -10 -16
-7 -33 -13 -39 -14 -5 0 -9 -7 -7 -14 1 -7 -2 -10 -7 -6 -13 8 -62 -5 -56 -15
2 -4 -7 -6 -20 -4 -14 1 -25 -2 -25 -7 0 -6 -4 -8 -9 -4 -5 3 -12 1 -15 -4 -6
-9 -30 -15 -141 -36 -16 -4 -48 -8 -70 -10 -71 -8 -92 -12 -103 -19 -7 -4 -12
-1 -12 6 0 8 -3 9 -8 3 -4 -5 -34 -12 -67 -14 -122 -9 -400 -2 -400 9 0 4 -46
10 -103 15 -81 7 -85 8 -94 20 -5 6 -8 4 -8 -4 0 -11 -4 -10 -14 4 -8 11 -19
16 -30 12 -9 -4 -14 -3 -11 2 3 5 1 12 -5 16 -5 3 -10 1 -10 -4 0 -6 -8 -11
-17 -10 -13 0 -14 2 -4 6 8 3 -7 15 -39 30 -43 19 -55 22 -62 11 -7 -10 -8 -9
-4 4 3 10 1 20 -4 23 -6 4 -10 -2 -11 -12 0 -16 -1 -16 -9 2 -4 11 -25 29 -46
39 -22 11 -50 30 -64 42 -30 27 -72 45 -122 51 -35 4 -39 2 -70 -42 -66 -93
-116 -204 -134 -297 -13 -64 -11 -70 21 -74 46 -5 158 -25 175 -31 8 -3 24 -8
35 -10 11 -1 29 -7 40 -12 11 -5 81 -32 155 -61 74 -28 149 -57 165 -65 17 -7
64 -26 105 -41 41 -15 107 -43 145 -64 78 -40 230 -103 251 -103 8 0 14 -4 14
-9 0 -4 10 -8 23 -8 12 0 33 -7 46 -16 12 -9 43 -17 68 -19 25 -1 49 -9 54
-16 5 -8 9 -9 9 -4 0 6 7 2 15 -9 8 -10 19 -15 26 -10 8 4 10 3 5 -4 -4 -7 -1
-12 6 -13 7 0 20 -2 28 -4 8 -2 28 -7 44 -10 16 -3 37 -10 48 -16 10 -5 22 -7
27 -4 5 3 11 1 13 -5 1 -5 12 -11 23 -13 11 -2 27 -6 35 -9 55 -20 101 -30
113 -25 8 3 18 2 23 -3 5 -5 36 -11 69 -15 50 -4 118 -13 160 -21 6 -1 20 -2
33 -3 13 0 21 -4 19 -9 -3 -4 7 -8 21 -9 15 -1 53 -5 85 -11 31 -5 59 -7 60
-5 2 2 57 6 123 9 179 8 184 8 380 40 20 3 46 8 58 10 11 3 35 8 51 11 17 2
45 11 64 19 18 8 38 11 44 7 6 -3 7 -1 3 5 -4 7 -2 13 3 13 6 1 16 2 21 3 6 0
14 6 18 12 4 6 17 10 29 9 14 -1 19 3 16 12 -4 10 1 13 21 9 16 -3 25 0 23 7
-1 6 3 11 10 12 6 0 15 3 19 8 4 4 16 7 26 7 10 0 18 5 18 10 0 6 6 10 13 10
6 0 28 14 47 30 19 16 43 30 53 30 10 0 30 13 45 29 59 63 74 93 53 105 -5 3
-9 21 -10 38 0 18 -2 40 -4 48 -3 8 -8 30 -12 48 -4 17 -11 32 -16 32 -5 0 -9
8 -9 18 0 10 -9 28 -20 40 -11 12 -20 23 -20 25 0 3 -8 22 -17 43 -9 22 -17
41 -18 44 -2 6 -14 34 -43 100 -42 97 -66 145 -76 152 -6 4 -7 8 -3 8 4 0 -13
40 -38 88 -25 48 -45 93 -45 99 0 6 -3 13 -7 15 -5 2 -20 28 -36 58 -15 30
-46 89 -68 130 -23 41 -48 86 -55 100 -8 14 -14 19 -14 11 0 -9 -4 -10 -12 -4
-7 5 -23 7 -34 5z m-263 -236 c-1 -3 -4 -6 -8 -7 -5 0 -15 -6 -23 -12 -8 -6
-6 -2 4 11 17 20 29 23 27 8z m-2057 -332 c3 -8 2 -12 -4 -9 -6 3 -10 10 -10
16 0 14 7 11 14 -7z m-29 -12 c-3 -3 -11 0 -18 7 -9 10 -8 11 6 5 10 -3 15 -9
12 -12z m215 -76 c0 -3 -4 -8 -10 -11 -5 -3 -10 -1 -10 4 0 6 5 11 10 11 6 0
10 -2 10 -4z"/>
<path d="M10806 7428 c5 -8 2 -9 -10 -5 -9 4 -15 3 -11 -2 6 -11 45 -10 45 0
0 4 -7 10 -16 13 -10 4 -13 2 -8 -6z"/>
<path d="M10842 7418 c-7 -7 -33 -14 -58 -15 -30 -2 -53 -10 -68 -25 -20 -19
-109 -223 -121 -278 -13 -54 -50 -170 -63 -195 -19 -38 -48 -152 -46 -185 1
-14 2 -40 3 -58 1 -33 2 -33 39 -27 49 8 173 18 244 19 32 1 58 5 58 9 0 4 8
4 17 -2 10 -5 26 -5 39 -1 12 5 24 6 27 3 3 -3 35 -6 72 -8 36 -2 73 -6 83 -9
9 -3 44 -8 77 -12 33 -3 63 -8 66 -10 4 -2 24 -6 45 -9 22 -3 64 -9 94 -15 30
-5 71 -12 90 -15 46 -8 55 -10 120 -23 84 -18 87 -19 205 -48 61 -14 118 -27
127 -27 9 -1 15 -4 12 -8 -2 -4 5 -9 17 -12 18 -5 18 -3 7 11 -12 15 -11 16 5
3 9 -7 17 -10 17 -5 0 5 7 0 16 -11 16 -21 44 -26 56 -10 5 6 8 3 8 -6 0 -11
9 -16 25 -16 13 0 48 -10 77 -21 127 -50 585 -207 628 -216 41 -8 172 -50 223
-73 32 -14 73 -29 90 -35 29 -9 46 -13 126 -32 12 -3 28 -9 35 -14 6 -5 28
-15 49 -22 22 -7 51 -18 65 -26 15 -8 33 -14 40 -14 7 0 26 -7 42 -15 16 -8
37 -16 47 -18 10 -1 23 -5 28 -8 6 -3 30 -11 55 -18 25 -8 68 -21 95 -29 28
-9 55 -17 60 -18 68 -15 138 -35 170 -48 49 -21 165 -52 225 -61 25 -3 52 -7
60 -8 8 -2 21 -6 28 -11 7 -4 19 -2 28 5 8 6 17 9 21 5 3 -3 1 -6 -5 -6 -7 0
-12 -4 -12 -9 0 -5 23 -8 50 -7 28 1 56 -2 63 -6 6 -4 21 2 33 13 18 17 26 19
43 10 12 -7 21 -8 21 -3 0 4 12 8 28 8 l27 -1 0 141 c0 109 -3 140 -12 137 -7
-3 -13 0 -13 6 0 6 5 11 11 11 8 0 7 6 -2 17 -12 15 -12 16 1 8 12 -7 13 -6 4
6 -6 8 -11 50 -13 94 -1 44 -6 97 -12 118 -5 20 -7 42 -4 47 3 6 0 10 -7 10
-11 0 -10 2 0 9 11 6 10 10 -3 15 -15 5 -15 9 -4 23 8 9 9 14 3 10 -16 -9 -25
28 -10 44 8 9 8 10 -3 4 -10 -6 -12 -2 -6 14 4 13 2 21 -6 21 -8 0 -8 5 2 17
10 11 10 14 2 9 -8 -4 -13 -1 -13 9 0 10 5 14 13 10 6 -4 4 0 -5 8 -21 16 -24
32 -5 21 9 -5 9 -4 0 6 -6 7 -9 19 -6 26 3 8 -1 14 -8 14 -11 0 -11 3 1 10 8
5 10 10 4 10 -7 0 -14 9 -17 20 -3 11 -1 20 5 20 5 0 6 6 1 13 -8 14 -13 30
-18 67 -4 34 -27 90 -37 90 -4 0 -8 6 -8 14 0 26 -15 26 -71 -1 -30 -15 -56
-27 -59 -28 -3 0 -15 -6 -28 -13 -25 -14 -200 -82 -237 -92 -5 -2 -40 -13 -77
-26 -38 -12 -68 -21 -68 -19 0 2 -21 -2 -47 -10 -62 -17 -118 -26 -199 -30
-36 -2 -68 -6 -72 -9 -3 -3 -11 -1 -18 5 -8 7 -14 7 -19 -1 -5 -8 -11 -8 -21
1 -11 9 -14 9 -14 -1 0 -9 -3 -10 -13 -1 -8 6 -17 8 -20 4 -11 -11 -189 -4
-182 7 2 4 -2 7 -10 7 -8 0 -12 -5 -8 -10 3 -5 -14 -6 -43 -2 -27 4 -68 8 -91
8 -31 0 -44 5 -53 21 -7 14 -9 15 -6 3 5 -14 0 -17 -25 -15 -17 1 -33 6 -35
10 -3 5 -10 5 -16 2 -8 -5 -9 -1 -5 10 4 9 3 15 -2 11 -5 -3 -12 1 -14 7 -4
10 -6 10 -6 1 -1 -7 -11 -17 -22 -24 -15 -8 -19 -8 -15 0 4 6 0 14 -8 17 -9 3
-13 11 -9 18 4 6 -1 5 -10 -3 -12 -9 -17 -10 -17 -2 0 7 -4 9 -10 6 -5 -3 -10
0 -10 7 0 9 -3 9 -10 -2 -7 -11 -10 -11 -10 -2 0 7 -4 10 -10 7 -5 -3 -10 -1
-10 4 0 6 -7 11 -15 11 -8 0 -23 4 -33 9 -20 11 -170 68 -192 73 -8 2 -17 6
-20 9 -3 3 -52 20 -110 38 -58 18 -114 36 -125 41 -37 15 -240 102 -293 126
-29 13 -55 24 -57 24 -3 0 -27 9 -53 21 -26 12 -56 25 -67 29 -11 5 -58 24
-105 43 -163 68 -264 107 -274 107 -5 0 -18 8 -29 18 -15 12 -18 13 -12 2 7
-13 6 -13 -7 -2 -9 7 -22 11 -29 10 -8 -2 -13 3 -11 11 3 12 0 12 -11 2 -12
-9 -18 -8 -33 6 -9 10 -28 16 -41 15 -15 -2 -30 3 -37 14 -7 9 -24 19 -36 21
-13 2 -29 8 -36 14 -8 7 -14 6 -20 -2 -5 -8 -3 -9 6 -4 8 5 11 4 7 -2 -9 -14
-78 6 -101 29 -13 14 -22 16 -36 8 -14 -8 -21 -6 -28 5 -9 18 -34 21 -71 9
-17 -5 -22 -4 -17 5 4 6 12 9 17 6 5 -4 9 -1 9 4 0 15 -13 14 -28 -1z m78 -24
c0 -2 -7 -4 -15 -4 -8 0 -15 4 -15 10 0 5 7 7 15 4 8 -4 15 -8 15 -10z m65
-14 c3 -5 1 -10 -4 -10 -6 0 -11 5 -11 10 0 6 2 10 4 10 3 0 8 -4 11 -10z
m180 -50 c3 -5 -1 -10 -10 -10 -9 0 -13 5 -10 10 3 6 8 10 10 10 2 0 7 -4 10
-10z m3321 -1420 c-3 -55 -12 -59 -12 -4 0 24 3 44 7 44 4 0 6 -18 5 -40z m0
-85 c0 -28 -8 -24 -13 5 -2 11 1 20 5 20 4 0 8 -11 8 -25z m-161 -73 c-8 -8
-65 -10 -60 -2 2 4 18 7 35 7 16 0 28 -3 25 -5z m37 1 c-6 -2 -9 -10 -6 -15 4
-7 2 -8 -5 -4 -13 9 -5 26 12 25 9 0 8 -2 -1 -6z"/>
<path d="M11050 7370 c0 -5 5 -10 11 -10 5 0 7 5 4 10 -3 6 -8 10 -11 10 -2 0
-4 -4 -4 -10z"/>
<path d="M11190 7330 c0 -5 5 -10 11 -10 5 0 7 5 4 10 -3 6 -8 10 -11 10 -2 0
-4 -4 -4 -10z"/>
<path d="M4615 7180 c-4 -6 -20 -9 -36 -6 -16 2 -29 0 -29 -5 0 -5 -5 -9 -11
-9 -5 0 -7 5 -4 10 3 6 2 10 -4 10 -5 0 -12 -6 -14 -12 -4 -10 -6 -10 -6 0 -1
6 -6 12 -12 12 -5 0 -8 -3 -6 -7 3 -5 -18 -9 -47 -10 -145 -4 -338 -91 -457
-205 -64 -61 -161 -186 -154 -198 4 -6 1 -9 -7 -8 -8 2 -12 -6 -10 -22 1 -16
-1 -20 -6 -12 -6 9 -13 6 -28 -11 -26 -29 -39 -60 -21 -52 6 4 4 0 -5 -8 -10
-8 -18 -19 -18 -26 0 -6 -4 -11 -9 -11 -5 0 -11 -11 -13 -25 -4 -16 0 -25 11
-28 10 -3 8 -5 -6 -6 -22 -1 -27 -14 -26 -58 1 -7 -4 -13 -11 -13 -6 0 -4 -5
4 -10 11 -7 11 -10 2 -10 -7 0 -11 -4 -7 -9 3 -5 2 -12 -3 -15 -8 -5 -14 -45
-16 -108 0 -21 -4 -38 -8 -38 -4 0 -6 -9 -5 -20 1 -11 6 -20 12 -20 6 0 7 -3
0 -8 -14 -10 -17 -32 -5 -32 6 0 10 -5 10 -11 0 -5 -5 -7 -10 -4 -14 9 -8 -16
8 -33 9 -10 10 -18 2 -27 -7 -8 -7 -21 -1 -38 5 -14 7 -29 3 -33 -4 -5 1 -3
10 5 14 11 19 8 32 -17 8 -16 12 -32 9 -36 -4 -3 -1 -6 5 -6 7 0 12 -5 12 -11
0 -8 -5 -8 -15 1 -8 7 -12 17 -8 23 3 6 1 7 -5 3 -8 -5 -10 -1 -5 10 4 12 3
15 -5 10 -8 -5 -10 -1 -6 11 5 14 4 15 -4 4 -18 -25 28 -87 56 -76 12 4 12 3
3 -9 -9 -11 -9 -16 0 -22 8 -4 9 -3 5 4 -12 20 0 13 36 -21 43 -41 95 -57 182
-57 123 0 178 40 243 179 24 53 53 114 64 137 10 22 19 46 19 52 0 7 4 12 8
12 5 0 9 6 9 13 0 25 54 120 90 157 51 52 63 67 63 78 0 5 43 9 95 8 l96 -2
40 -46 c45 -53 74 -113 84 -175 12 -78 -50 -279 -117 -375 -24 -33 -51 -72
-60 -87 -9 -14 -21 -30 -25 -36 -5 -5 -40 -55 -78 -110 -38 -55 -72 -102 -76
-105 -4 -3 -9 -12 -11 -20 -2 -7 -14 -24 -28 -37 -80 -75 -96 -93 -126 -140
-19 -29 -34 -57 -34 -62 0 -5 -13 -18 -30 -27 -23 -14 -27 -21 -18 -31 6 -8 7
-13 2 -12 -21 4 -34 -2 -34 -15 0 -8 -12 -24 -26 -37 -78 -72 -109 -107 -126
-145 -6 -13 -15 -24 -21 -24 -5 0 -7 -6 -4 -14 4 -10 0 -12 -13 -9 -15 4 -18
1 -15 -17 3 -16 0 -20 -11 -16 -10 4 -14 1 -12 -6 3 -7 -5 -22 -16 -34 -63
-65 -97 -106 -139 -164 -26 -36 -52 -71 -57 -77 -6 -7 -8 -13 -4 -13 4 0 0 -8
-8 -17 -8 -10 -29 -46 -45 -81 -16 -34 -32 -60 -35 -57 -2 3 -5 -2 -5 -10 0
-8 4 -12 8 -10 4 3 6 -3 4 -12 -1 -10 2 -26 7 -37 7 -12 7 -16 0 -12 -5 3 -12
-1 -15 -8 -3 -8 -2 -17 4 -20 5 -2 4 -3 -3 -1 -7 1 -11 9 -9 16 13 47 4 78
-14 49 -3 -5 -1 -10 5 -10 7 0 8 -5 3 -12 -11 -18 -11 -88 -1 -88 5 0 7 -4 3
-9 -3 -6 5 -20 17 -32 13 -12 17 -19 11 -15 -7 4 -13 3 -13 -3 0 -5 8 -14 18
-20 9 -5 16 -12 15 -15 -6 -14 -2 -26 8 -26 6 0 27 -18 47 -40 19 -22 37 -38
40 -35 3 3 12 -1 20 -8 9 -6 13 -7 9 -1 -4 7 4 9 24 6 16 -2 29 -8 29 -11 0
-7 8 -9 48 -12 9 -1 23 -7 31 -13 11 -8 13 -8 7 2 -4 7 -1 12 9 12 10 0 13 -5
9 -12 -6 -10 -5 -10 7 -1 12 10 18 10 29 0 8 -7 10 -8 7 -1 -5 8 4 11 23 10
17 0 30 -5 30 -10 0 -4 6 -4 13 2 8 7 18 7 27 2 9 -6 17 -5 22 3 6 9 8 9 8 0
0 -8 9 -9 30 -3 19 5 28 5 25 -1 -4 -5 -1 -9 4 -9 6 0 11 5 11 11 0 8 4 8 14
0 15 -13 37 -11 49 4 4 6 10 5 16 -4 5 -7 14 -10 20 -6 7 4 19 1 28 -7 12 -9
15 -9 9 0 -4 7 -2 12 6 12 8 0 20 -6 27 -12 10 -11 11 -10 6 5 -9 21 -1 22 19
1 9 -9 16 -11 16 -4 0 6 5 8 10 5 6 -3 10 -1 10 5 0 6 5 8 10 5 6 -4 7 -11 4
-17 -5 -7 -2 -8 7 -2 20 12 51 12 68 0 12 -9 13 -8 6 3 -6 11 -4 13 8 8 9 -3
19 -2 23 4 4 6 11 6 20 -2 8 -6 14 -8 14 -3 0 5 5 2 10 -6 6 -9 10 -10 10 -3
0 6 9 10 20 8 11 -2 22 0 25 5 3 6 16 5 30 0 16 -6 27 -6 31 1 4 7 12 5 23 -5
10 -9 21 -13 25 -9 4 4 26 8 49 8 23 1 48 4 55 9 8 5 12 1 12 -11 0 -10 3 -14
8 -8 4 6 16 11 27 10 11 0 23 5 27 10 5 6 8 5 8 -2 0 -7 6 -10 13 -8 25 10 78
12 83 4 3 -5 10 -7 15 -4 23 15 53 13 66 -3 12 -16 12 -15 6 3 -6 18 -5 18 10
6 13 -10 17 -10 17 -1 0 9 4 9 17 -1 11 -10 14 -10 9 -1 -4 6 -3 12 3 12 5 0
12 -6 14 -12 4 -10 6 -10 6 0 1 6 10 12 22 12 13 0 18 -4 13 -12 -5 -9 -2 -9
9 1 14 11 17 11 17 0 0 -10 2 -11 8 -2 4 6 19 14 32 17 14 3 40 9 58 15 17 5
32 7 32 3 1 -4 9 2 18 14 10 12 34 26 53 33 35 11 59 43 59 76 0 8 8 15 18 15
13 0 14 2 3 9 -8 6 -10 14 -5 22 11 19 14 218 3 225 -5 3 -9 14 -9 24 0 28
-89 114 -143 139 -63 29 -86 30 -387 30 -140 0 -264 0 -275 0 -11 1 -48 1 -82
1 -35 -1 -63 2 -63 6 0 4 11 16 24 28 26 24 108 117 146 166 14 17 31 38 38
45 6 8 12 16 12 20 0 10 43 67 84 109 21 23 62 68 90 100 28 33 58 67 66 76 8
8 28 34 45 55 16 22 43 53 59 70 31 32 96 128 96 143 0 5 11 19 25 32 14 13
25 30 25 37 0 14 52 115 74 142 8 11 8 13 -1 8 -7 -5 -4 8 6 30 17 34 44 100
47 113 11 61 20 89 36 106 13 14 16 24 9 29 -6 3 -11 11 -11 16 0 6 6 7 13 3
9 -6 9 -4 -1 8 -8 10 -9 18 -3 22 6 4 7 14 4 23 -4 10 -2 14 5 9 6 -3 14 -2
17 4 4 6 1 9 -7 8 -7 -2 -11 3 -9 12 2 8 3 24 3 35 -1 10 4 25 9 32 6 6 7 18
3 24 -10 17 -11 69 0 69 5 0 4 6 -2 13 -7 8 -7 18 -2 27 5 8 6 18 3 24 -3 5
-8 33 -10 63 -1 29 -12 72 -24 94 -11 23 -18 47 -15 55 3 9 1 12 -4 9 -10 -6
-12 -2 -15 48 -4 54 -91 193 -161 257 -149 136 -230 185 -334 204 -14 2 -45 9
-69 15 -25 5 -49 8 -53 5 -4 -3 -8 0 -8 5 0 6 -7 11 -16 11 -9 0 -12 -5 -8
-12 5 -8 1 -7 -10 2 -20 16 -54 18 -75 5 -10 -5 -12 -4 -7 3 10 16 -7 15 -23
0 -10 -11 -11 -10 -6 5 8 19 0 23 -10 7z m-819 -492 c-9 -5 -13 -14 -10 -20 4
-7 2 -8 -4 -4 -9 5 -9 12 0 26 7 10 16 16 21 13 5 -3 2 -10 -7 -15z m-26 -63
c-7 -9 -15 -13 -19 -10 -3 3 1 10 9 15 21 14 24 12 10 -5z m-20 -34 c0 -6 -4
-12 -8 -15 -5 -3 -9 1 -9 9 0 8 4 15 9 15 4 0 8 -4 8 -9z m-60 -486 c0 -8 -2
-15 -4 -15 -2 0 -6 7 -10 15 -3 8 -1 15 4 15 6 0 10 -7 10 -15z m1750 -39 c0
-3 -4 -8 -10 -11 -5 -3 -10 -1 -10 4 0 6 5 11 10 11 6 0 10 -2 10 -4z m-1815
-1697 c1 -28 -2 -34 -5 -14 -1 6 -6 17 -10 26 -6 10 -5 16 3 16 7 0 12 -13 12
-28z"/>
<path d="M5901 6704 c0 -11 3 -14 6 -6 3 7 2 16 -1 19 -3 4 -6 -2 -5 -13z"/>
<path d="M12916 6678 c3 -5 10 -6 15 -3 13 9 11 12 -6 12 -8 0 -12 -4 -9 -9z"/>
<path d="M5936 6472 c-2 -4 -1 -14 4 -22 7 -11 9 -9 7 8 -1 24 -3 26 -11 14z"/>
<path d="M11308 6235 c-2 -1 -52 -6 -113 -9 -60 -4 -130 -9 -155 -11 -68 -5
-192 -17 -220 -20 -14 -2 -52 -6 -85 -9 -33 -3 -69 -8 -80 -10 -11 -2 -46 -7
-77 -10 -31 -4 -83 -11 -115 -16 -32 -6 -62 -10 -66 -10 -5 0 -7 -106 -6 -235
1 -129 6 -235 11 -235 5 0 8 -6 6 -12 -6 -36 36 -242 54 -265 6 -7 8 -13 4
-13 -8 0 45 -144 56 -151 5 -3 9 -10 9 -15 -1 -13 20 -87 27 -99 4 -5 7 -12 8
-15 0 -3 12 -31 27 -62 27 -61 70 -95 86 -69 5 7 10 12 12 11 2 -1 42 16 89
38 109 50 264 118 290 127 3 1 16 6 30 12 59 25 157 62 165 63 3 0 18 6 34 14
16 9 31 12 35 9 3 -4 6 -2 6 4 0 5 6 10 13 11 13 0 50 8 75 16 9 3 28 7 42 10
14 2 45 9 70 15 71 16 159 32 275 52 33 5 71 12 85 15 14 3 42 6 63 8 21 1 43
9 47 16 5 8 12 11 16 8 4 -4 15 -3 25 3 14 7 19 6 19 -2 0 -9 3 -9 14 0 11 9
15 9 19 -1 4 -10 6 -10 6 0 1 6 8 12 16 12 8 0 15 -6 15 -12 0 -9 3 -9 9 1 5
8 18 12 30 8 12 -3 21 -1 21 4 0 6 9 5 21 -2 15 -8 19 -8 15 0 -4 6 -4 11 -1
11 4 0 16 -5 27 -11 14 -7 18 -8 14 0 -9 13 46 10 56 -4 5 -7 8 -7 8 0 0 6 20
11 45 12 25 1 45 -2 45 -7 0 -6 5 -10 11 -10 5 0 8 4 4 9 -7 12 36 11 52 -1 6
-5 14 -5 18 2 3 6 10 8 15 5 5 -3 53 -8 107 -10 54 -2 112 -6 128 -9 17 -3 55
-8 85 -11 66 -8 85 -11 125 -19 17 -4 46 -9 65 -12 19 -2 55 -9 80 -15 55 -12
171 -39 185 -43 6 -1 26 -6 45 -10 19 -4 64 -17 100 -28 36 -11 76 -22 89 -24
13 -3 34 -10 45 -16 12 -6 21 -10 21 -8 0 6 251 -81 335 -117 8 -3 18 -5 23
-5 4 1 7 -2 7 -7 0 -5 14 -14 30 -21 17 -7 30 -16 30 -20 0 -4 25 -15 55 -25
31 -9 62 -24 70 -31 8 -8 31 -22 52 -30 36 -15 38 -15 55 6 10 12 18 31 18 41
0 10 5 19 11 19 5 0 8 4 4 9 -3 5 0 15 7 23 7 7 13 18 14 23 3 24 17 55 26 55
5 0 7 4 3 9 -3 6 3 14 12 20 14 8 15 10 3 11 -9 0 -11 3 -5 8 20 15 59 108 60
144 0 20 4 40 8 44 3 4 5 -3 2 -14 -2 -12 1 -25 7 -28 7 -4 8 -2 4 4 -4 7 -1
12 6 12 9 0 9 3 -2 10 -8 5 -11 10 -7 10 14 0 -10 33 -26 36 -9 1 -53 14 -99
29 -46 15 -87 28 -93 30 -5 1 -17 5 -25 8 -8 3 -44 15 -80 27 -36 11 -73 25
-83 31 -10 5 -22 7 -27 4 -4 -3 -10 -2 -12 2 -4 10 -184 83 -203 83 -7 0 -15
3 -17 8 -2 4 -55 29 -118 57 -63 27 -116 52 -118 56 -2 4 -12 5 -22 2 -11 -3
-20 0 -20 6 0 6 -10 11 -22 11 -12 0 -29 7 -39 16 -9 8 -26 17 -36 19 -10 1
-17 8 -15 16 3 10 0 10 -12 0 -11 -10 -19 -9 -38 1 -13 7 -27 19 -31 26 -4 6
-16 12 -25 12 -10 0 -23 5 -30 12 -7 7 -12 8 -12 4 0 -5 -7 -3 -15 4 -9 7 -23
14 -33 15 -37 4 -83 18 -88 26 -3 5 -14 9 -25 9 -10 0 -19 5 -19 11 0 5 -4 8
-8 5 -5 -3 -21 1 -36 9 -14 8 -24 10 -20 4 5 -9 -34 9 -46 21 -3 3 -9 5 -15 5
-19 0 -140 49 -147 59 -4 6 -8 8 -8 4 0 -4 -24 2 -52 13 -29 12 -62 22 -73 24
-11 1 -33 5 -50 8 -16 4 -44 9 -60 12 -17 2 -86 23 -155 46 -96 31 -145 42
-210 45 -47 2 -85 4 -85 5 0 3 -74 16 -140 24 -27 3 -68 8 -90 11 -22 2 -58 7
-80 9 -49 5 -462 14 -467 10z m3112 -857 c0 -11 -12 -10 -30 2 -12 7 -10 9 8
7 12 0 22 -5 22 -9z"/>
<path d="M5416 5973 c-6 -14 -5 -15 5 -6 7 7 10 15 7 18 -3 3 -9 -2 -12 -12z"/>
<path d="M14386 5734 c-5 -13 -4 -14 7 -6 8 7 18 8 22 4 5 -4 5 -1 1 6 -10 17
-23 15 -30 -4z"/>
<path d="M12719 5156 c-2 -3 -38 -5 -79 -7 -41 -1 -81 -7 -89 -13 -11 -8 -13
-8 -7 2 4 7 2 12 -5 12 -7 0 -9 -9 -6 -22 l6 -23 -17 23 c-10 13 -21 20 -25
16 -4 -4 -25 -9 -47 -10 -98 -5 -164 -15 -177 -26 -18 -15 -54 -18 -46 -5 4 6
-1 8 -11 4 -10 -4 -22 -7 -27 -7 -6 0 -7 -6 -3 -12 6 -10 5 -10 -8 -1 -8 7
-17 10 -21 7 -3 -3 -23 -7 -44 -9 -21 -2 -54 -6 -73 -10 -19 -4 -44 -8 -55 -9
-11 -2 -29 -6 -40 -9 -11 -3 -38 -8 -60 -12 -22 -3 -58 -11 -80 -17 -22 -6
-42 -12 -45 -13 -3 -1 -25 -7 -50 -14 -49 -13 -150 -48 -190 -64 -14 -6 -27
-11 -30 -12 -61 -18 -90 -30 -90 -37 0 -4 -8 -8 -18 -8 -10 0 -26 -6 -37 -14
-11 -7 -51 -23 -89 -35 -81 -25 -171 -71 -223 -115 -21 -18 -56 -40 -78 -50
-78 -36 -81 -31 74 -164 30 -26 60 -53 67 -59 7 -7 15 -13 18 -13 3 0 14 -7
24 -16 62 -57 331 -224 360 -224 7 0 12 -3 12 -8 0 -4 15 -13 33 -21 17 -8 55
-24 82 -36 28 -13 71 -30 95 -38 25 -8 80 -31 123 -51 43 -20 88 -37 100 -39
12 -1 25 -5 28 -10 3 -4 15 -9 27 -12 12 -2 28 -7 35 -12 6 -4 28 -8 48 -9 20
0 41 -4 48 -8 6 -4 17 -4 24 1 6 4 17 8 24 9 7 1 26 9 42 17 17 9 44 18 61 22
16 4 30 11 30 16 0 5 5 9 11 9 5 0 49 19 97 42 48 24 90 43 94 43 3 0 10 3 14
8 4 4 16 7 26 7 10 0 18 5 18 11 0 8 6 7 17 -2 9 -8 14 -9 10 -2 -9 14 86 48
109 39 8 -3 17 1 20 9 4 8 10 15 16 15 5 0 7 -4 4 -9 -9 -14 19 -7 38 9 9 7
29 14 44 16 15 1 28 3 30 4 1 1 10 3 20 4 9 1 23 5 31 10 10 7 12 6 6 -3 -6
-10 -3 -11 11 -3 22 11 95 20 239 28 55 3 125 7 155 10 30 2 99 6 152 9 l98 4
61 58 c34 32 91 86 127 121 36 34 68 62 70 62 3 0 17 12 32 28 14 15 50 47 79
72 30 25 63 53 75 63 11 10 36 31 55 45 100 79 105 121 18 165 -43 21 -113 48
-137 52 -23 4 -120 41 -140 54 -20 14 -23 14 -15 1 5 -9 -1 -7 -15 5 -14 12
-20 14 -15 5 8 -13 7 -13 -8 -1 -9 7 -17 10 -17 5 0 -5 -7 0 -15 10 -8 11 -15
14 -15 8 0 -7 -4 -12 -10 -12 -5 0 -10 8 -10 18 0 10 -3 13 -8 6 -4 -6 -16
-10 -26 -8 -45 7 -66 15 -61 24 3 5 -7 5 -26 0 -24 -7 -28 -6 -20 3 8 10 3 13
-22 14 -73 1 -83 3 -67 13 8 5 10 10 4 10 -5 0 -16 -6 -23 -12 -12 -11 -13 -9
-7 7 6 16 5 18 -5 8 -7 -7 -17 -13 -22 -13 -4 0 -5 6 -1 13 6 9 4 9 -8 -1 -8
-7 -23 -9 -33 -6 -13 5 -14 9 -3 15 9 6 9 9 1 9 -6 0 -15 -4 -18 -10 -3 -5
-12 -10 -18 -10 -8 0 -7 4 2 9 17 11 -25 20 -104 24 -27 1 -53 7 -57 12 -5 6
-8 5 -8 -3 0 -9 -5 -10 -19 -2 -13 7 -22 7 -26 0 -3 -5 -12 -10 -18 -10 -8 0
-8 3 1 9 11 7 11 9 -2 14 -8 3 -17 1 -20 -6 -3 -9 -7 -9 -14 1 -13 19 -25 17
-33 -5 -6 -13 -8 -14 -8 -3 -1 9 -10 16 -21 17 -13 1 -18 -2 -14 -9 4 -6 3 -8
-4 -4 -5 3 -12 3 -15 -1 -2 -5 -2 -2 0 6 2 9 -3 12 -16 8 -11 -3 -22 0 -25 7
-2 6 -5 3 -5 -6 -1 -10 -6 -18 -12 -18 -5 0 -7 5 -4 10 3 6 3 10 -2 11 -4 0
-16 2 -26 4 -14 3 -16 -1 -11 -17 6 -20 6 -20 -15 1 -26 26 -37 26 -50 4 -9
-15 -10 -15 -11 -3 0 17 -36 21 -59 6 -10 -6 -12 -6 -7 2 7 12 4 16 -5 8z m56
-35 c-6 -5 -25 10 -25 20 0 5 6 4 14 -3 8 -7 12 -15 11 -17z m71 2 c-6 -6 -36
9 -36 18 0 5 9 4 20 -3 10 -7 18 -14 16 -15z m-336 -3 c0 -5 -5 -10 -11 -10
-5 0 -7 5 -4 10 3 6 8 10 11 10 2 0 4 -4 4 -10z m60 0 c0 -5 -5 -10 -11 -10
-5 0 -7 5 -4 10 3 6 8 10 11 10 2 0 4 -4 4 -10z m163 3 c-7 -2 -19 -2 -25 0
-7 3 -2 5 12 5 14 0 19 -2 13 -5z m-423 -23 c0 -5 -2 -10 -4 -10 -3 0 -8 5
-11 10 -3 6 -1 10 4 10 6 0 11 -4 11 -10z m470 -904 c0 -3 -4 -8 -10 -11 -5
-3 -10 -1 -10 4 0 6 5 11 10 11 6 0 10 -2 10 -4z"/>
<path d="M12250 5109 c0 -5 5 -7 10 -4 6 3 10 8 10 11 0 2 -4 4 -10 4 -5 0
-10 -5 -10 -11z"/>
<path d="M13490 5079 c0 -5 5 -7 10 -4 6 3 10 8 10 11 0 2 -4 4 -10 4 -5 0
-10 -5 -10 -11z"/>
<path d="M13630 5046 c0 -2 7 -7 16 -10 8 -3 12 -2 9 4 -6 10 -25 14 -25 6z"/>
<path d="M7916 4952 c-3 -5 1 -9 9 -9 8 0 12 4 9 9 -3 4 -7 8 -9 8 -2 0 -6 -4
-9 -8z"/>
<path d="M3798 4153 c7 -3 16 -2 19 1 4 3 -2 6 -13 5 -11 0 -14 -3 -6 -6z"/>
<path d="M4637 4129 c7 -7 15 -10 18 -7 3 3 -2 9 -12 12 -14 6 -15 5 -6 -5z"/>
</g>
</svg>
