<?xml version="1.0" standalone="no"?>
<!DOCTYPE svg PUBLIC "-//W3C//DTD SVG 20010904//EN"
 "http://www.w3.org/TR/2001/REC-SVG-20010904/DTD/svg10.dtd">
<svg version="1.0" xmlns="http://www.w3.org/2000/svg"
 width="700.000000pt" height="700.000000pt" viewBox="0 0 700.000000 700.000000"
 preserveAspectRatio="xMidYMid meet">
<metadata>
Created by potrace 1.14, written by Peter Selinger 2001-2017
</metadata>
<g transform="translate(0.000000,700.000000) scale(0.100000,-0.100000)"
fill="#000000" stroke="none">
<path d="M4435 6987 c-67 -22 -259 -125 -360 -192 -134 -90 -229 -170 -329
-277 -47 -50 -87 -90 -90 -87 -2 2 -23 36 -46 74 -115 189 -186 271 -269 308
-66 29 -190 21 -255 -17 -122 -72 -366 -445 -454 -696 -64 -184 -100 -416 -88
-570 5 -52 4 -81 -2 -75 -5 6 -110 151 -233 324 -246 347 -256 356 -328 329
-42 -16 -77 -74 -67 -113 3 -13 107 -165 230 -337 123 -172 223 -314 222 -315
-1 -2 -31 8 -66 22 -284 111 -641 126 -984 40 -139 -35 -291 -89 -346 -123
-51 -31 -104 -104 -121 -165 -16 -59 -6 -154 21 -207 27 -52 106 -161 184
-253 l54 -65 -81 -31 c-189 -74 -407 -222 -591 -400 -133 -130 -157 -169 -164
-262 -8 -119 31 -206 122 -269 25 -17 103 -60 173 -95 151 -77 187 -82 235
-34 l31 31 82 -26 c45 -14 87 -26 93 -26 7 0 12 -14 12 -33 0 -41 24 -75 64
-92 56 -23 221 -38 375 -33 l147 5 -18 -69 c-33 -131 -48 -271 -48 -449 1 -96
5 -194 9 -219 11 -52 48 -90 89 -90 26 0 28 -3 48 -97 l21 -97 -33 -32 c-46
-43 -44 -76 10 -211 109 -271 256 -493 466 -703 169 -170 382 -321 725 -517
797 -456 1621 -743 2375 -829 318 -36 550 14 784 170 87 58 200 167 267 256
150 201 312 737 383 1272 46 348 45 376 -24 410 -19 10 -35 22 -34 28 1 5 2
50 3 98 l1 88 34 12 c67 24 70 38 63 291 -9 324 -44 629 -112 969 -73 361
-136 572 -230 767 -165 342 -432 645 -748 850 -257 167 -586 282 -856 302 -50
3 -91 8 -91 10 0 2 13 29 29 61 55 111 121 346 121 435 0 40 -5 54 -29 78 -16
16 -37 29 -45 29 -14 0 -16 16 -16 100 l0 100 34 14 c57 24 70 54 63 149 -9
126 -36 266 -62 323 -28 63 -84 120 -143 147 -57 25 -154 31 -207 14z m-133
-414 c13 -462 -96 -797 -347 -1060 l-74 -78 -1 43 c0 62 -41 102 -102 102 -67
0 -93 -33 -113 -140 -20 -107 -62 -237 -85 -260 -9 -9 -135 -101 -280 -205
l-263 -188 -33 39 c-105 125 -214 400 -243 617 -42 305 51 653 254 952 181
268 222 285 328 137 130 -181 222 -367 286 -580 34 -114 41 -129 71 -149 48
-33 85 -30 126 11 25 25 34 43 34 68 0 39 -29 152 -66 256 l-26 72 43 58 c64
85 174 196 264 267 83 65 202 145 216 145 4 0 9 -48 11 -107z m-2304 -1338
c242 -43 476 -164 665 -344 97 -93 194 -219 181 -237 -5 -7 -130 -99 -278
-205 l-269 -192 -131 6 c-142 6 -232 25 -363 77 -232 92 -482 299 -677 561
-63 84 -76 108 -76 139 0 53 27 72 165 118 285 95 541 120 783 77z m-660 -862
c177 -145 390 -250 598 -296 l102 -23 -77 -80 -76 -81 -78 -11 c-300 -45 -639
23 -989 199 l-102 51 25 19 c145 115 436 265 522 268 9 1 43 -20 75 -46z"/>
</g>
</svg>
